<svg width="422" height="197" viewBox="0 0 422 197" fill="none" xmlns="http://www.w3.org/2000/svg">
<path d="M252.667 159.957C252.667 167.321 258.636 173.29 266 173.29C273.364 173.29 279.333 167.321 279.333 159.957C279.333 152.593 273.364 146.624 266 146.624C258.636 146.624 252.667 152.593 252.667 159.957ZM422 13.9569L396.731 1.90735e-06L397.278 28.8623L422 13.9569ZM266 159.957V162.457C267.775 162.457 269.509 162.428 271.204 162.372L271.121 159.873L271.038 157.375C269.4 157.429 267.721 157.457 266 157.457V159.957ZM281.023 159.179L281.297 161.664C284.837 161.275 288.184 160.745 291.349 160.083L290.837 157.636L290.326 155.189C287.328 155.816 284.141 156.321 280.75 156.694L281.023 159.179ZM300.425 155.038L301.23 157.405C304.63 156.249 307.778 154.91 310.696 153.402L309.549 151.181L308.402 148.96C305.714 150.348 302.796 151.592 299.621 152.671L300.425 155.038ZM317.94 145.901L319.451 147.892C322.285 145.741 324.831 143.396 327.128 140.888L325.284 139.199L323.441 137.511C321.339 139.805 319.014 141.947 316.428 143.91L317.94 145.901ZM331.351 131.34L333.445 132.704C335.316 129.833 336.967 126.829 338.442 123.73L336.185 122.656L333.927 121.581C332.535 124.506 330.991 127.312 329.256 129.975L331.351 131.34ZM339.991 113.457L342.343 114.305C343.48 111.152 344.498 107.934 345.435 104.682L343.033 103.99L340.63 103.298C339.717 106.469 338.732 109.579 337.64 112.608L339.991 113.457ZM345.59 94.3664L348.016 94.9686C348.818 91.7359 349.583 88.4859 350.344 85.2598L347.911 84.6862L345.477 84.1126C344.715 87.345 343.957 90.5653 343.163 93.7642L345.59 94.3664ZM350.238 75.0082L352.663 75.6138C353.469 72.3883 354.308 69.2093 355.218 66.0972L352.818 65.3953L350.419 64.6935C349.484 67.8896 348.628 71.1369 347.812 74.4026L350.238 75.0082ZM355.923 55.9374L358.267 56.8076C359.411 53.7275 360.67 50.7574 362.087 47.9216L359.85 46.8046L357.613 45.6875C356.104 48.7103 354.775 51.8491 353.58 55.0673L355.923 55.9374ZM364.912 38.248L366.958 39.6841C368.773 37.0975 370.795 34.6783 373.067 32.4524L371.317 30.6668L369.567 28.8811C367.06 31.3383 364.842 33.9951 362.865 36.8118L364.912 38.248ZM379.056 24.45L380.423 26.5432C382.955 24.8896 385.739 23.4064 388.811 22.1186L387.844 19.813L386.878 17.5073C383.534 18.9089 380.482 20.533 377.689 22.3569L379.056 24.45ZM397.234 16.7079L397.846 19.1318C400.78 18.3906 403.928 17.7918 407.31 17.3501L406.986 14.8712L406.663 12.3922C403.1 12.8574 399.759 13.4915 396.621 14.2841L397.234 16.7079Z" fill="black"/>
<rect y="127.457" width="266" height="69" rx="34.5" fill="#FFDD00"/>
<path d="M63.9781 173.873C62.3141 173.873 60.7675 173.574 59.3381 172.977C57.9301 172.38 56.6928 171.548 55.6261 170.481C54.5808 169.414 53.7595 168.188 53.1621 166.801C52.5861 165.393 52.2981 163.889 52.2981 162.289C52.2981 160.689 52.5755 159.185 53.1301 157.777C53.7061 156.369 54.5061 155.132 55.5301 154.065C56.5755 152.998 57.8128 152.166 59.2421 151.569C60.6715 150.95 62.2501 150.641 63.9781 150.641C65.8128 150.641 67.3808 150.929 68.6821 151.505C70.0048 152.081 71.1675 152.966 72.1701 154.161L69.0021 156.913C67.6581 155.505 65.9835 154.801 63.9781 154.801C62.5488 154.801 61.3008 155.142 60.2341 155.825C59.1888 156.508 58.3781 157.414 57.8021 158.545C57.2261 159.676 56.9381 160.924 56.9381 162.289C56.9381 163.654 57.2261 164.902 57.8021 166.033C58.3781 167.142 59.1995 168.038 60.2661 168.721C61.3328 169.382 62.6021 169.713 64.0741 169.713C65.1621 169.713 66.1221 169.532 66.9541 169.169C67.7861 168.806 68.5328 168.262 69.1941 167.537L72.4581 170.321C71.6048 171.345 70.4635 172.198 69.0341 172.881C67.6261 173.542 65.9408 173.873 63.9781 173.873ZM76.2056 173.457V150.097H80.5256V173.457H76.2056ZM87.4646 155.441C86.7393 155.441 86.1206 155.196 85.6086 154.705C85.118 154.193 84.8726 153.585 84.8726 152.881C84.8726 152.198 85.118 151.612 85.6086 151.121C86.1206 150.609 86.7393 150.353 87.4646 150.353C88.2113 150.353 88.83 150.609 89.3206 151.121C89.8113 151.612 90.0566 152.198 90.0566 152.881C90.0566 153.606 89.8113 154.214 89.3206 154.705C88.83 155.196 88.2113 155.441 87.4646 155.441ZM85.3206 173.457V156.817H89.6406V173.457H85.3206ZM102.372 173.873C101.177 173.873 100.057 173.649 99.0116 173.201C97.9876 172.753 97.081 172.134 96.2916 171.345C95.5023 170.534 94.8836 169.606 94.4356 168.561C94.009 167.494 93.7956 166.353 93.7956 165.137C93.7956 163.516 94.169 162.054 94.9156 160.753C95.6836 159.43 96.729 158.374 98.0516 157.585C99.3956 156.796 100.91 156.401 102.596 156.401C104.11 156.38 105.465 156.646 106.66 157.201C107.854 157.756 108.804 158.524 109.508 159.505L106.18 162.225C105.796 161.649 105.294 161.19 104.676 160.849C104.078 160.508 103.406 160.337 102.66 160.337C101.742 160.337 100.942 160.561 100.26 161.009C99.577 161.436 99.0436 162.012 98.6596 162.737C98.297 163.462 98.1156 164.262 98.1156 165.137C98.1156 165.99 98.3076 166.79 98.6916 167.537C99.097 168.262 99.641 168.849 100.324 169.297C101.028 169.724 101.838 169.937 102.756 169.937C103.588 169.937 104.292 169.756 104.868 169.393C105.444 169.009 105.945 168.529 106.372 167.953L109.508 170.673C108.718 171.676 107.737 172.465 106.564 173.041C105.412 173.596 104.014 173.873 102.372 173.873ZM113.457 173.457V150.097H117.777V163.537L124.017 156.817H130.161L122.321 164.561L130.193 173.457H124.465L117.777 165.553V173.457H113.457ZM141.351 173.457V151.057H145.831V160.081H155.111V151.057H159.591V173.457H155.111V164.113H145.831V173.457H141.351ZM172.676 173.873C170.969 173.873 169.465 173.478 168.164 172.689C166.863 171.9 165.849 170.854 165.124 169.553C164.42 168.23 164.068 166.769 164.068 165.169C164.068 163.569 164.441 162.108 165.188 160.785C165.935 159.441 166.948 158.374 168.228 157.585C169.529 156.796 171.012 156.401 172.676 156.401C174.34 156.401 175.801 156.796 177.06 157.585C178.34 158.374 179.332 159.441 180.036 160.785C180.761 162.108 181.124 163.569 181.124 165.169C181.124 165.404 181.113 165.649 181.092 165.905C181.071 166.161 181.039 166.428 180.996 166.705H168.548C168.783 167.686 169.252 168.486 169.956 169.105C170.681 169.724 171.588 170.033 172.676 170.033C173.615 170.033 174.425 169.82 175.108 169.393C175.812 168.966 176.356 168.433 176.74 167.793L180.1 170.321C179.439 171.366 178.447 172.22 177.124 172.881C175.801 173.542 174.319 173.873 172.676 173.873ZM172.612 160.113C171.588 160.113 170.713 160.422 169.988 161.041C169.263 161.66 168.783 162.47 168.548 163.473H176.772C176.537 162.556 176.047 161.766 175.3 161.105C174.575 160.444 173.679 160.113 172.612 160.113ZM185.261 173.457V156.817H189.453V159.985C189.73 158.79 190.295 157.884 191.149 157.265C192.002 156.625 193.154 156.348 194.605 156.433V160.497H193.997C192.759 160.497 191.714 160.892 190.861 161.681C190.007 162.47 189.581 163.558 189.581 164.945V173.457H185.261ZM205.437 173.873C203.731 173.873 202.227 173.478 200.925 172.689C199.624 171.9 198.611 170.854 197.885 169.553C197.181 168.23 196.829 166.769 196.829 165.169C196.829 163.569 197.203 162.108 197.949 160.785C198.696 159.441 199.709 158.374 200.989 157.585C202.291 156.796 203.773 156.401 205.437 156.401C207.101 156.401 208.563 156.796 209.821 157.585C211.101 158.374 212.093 159.441 212.797 160.785C213.523 162.108 213.885 163.569 213.885 165.169C213.885 165.404 213.875 165.649 213.853 165.905C213.832 166.161 213.8 166.428 213.757 166.705H201.309C201.544 167.686 202.013 168.486 202.717 169.105C203.443 169.724 204.349 170.033 205.437 170.033C206.376 170.033 207.187 169.82 207.869 169.393C208.573 168.966 209.117 168.433 209.501 167.793L212.861 170.321C212.2 171.366 211.208 172.22 209.885 172.881C208.563 173.542 207.08 173.873 205.437 173.873ZM205.373 160.113C204.349 160.113 203.475 160.422 202.749 161.041C202.024 161.66 201.544 162.47 201.309 163.473H209.533C209.299 162.556 208.808 161.766 208.061 161.105C207.336 160.444 206.44 160.113 205.373 160.113Z" fill="black"/>
</svg>
