<svg width="349" height="182" viewBox="0 0 349 182" fill="none" xmlns="http://www.w3.org/2000/svg">
<path d="M0 168.894V11.5C0 8.73858 2.23857 6.5 5 6.5H341V150.117H315.963H31.7034C30.3249 150.117 29.0076 150.686 28.0627 151.69L8.64063 172.321C5.53717 175.618 0 173.422 0 168.894Z" fill="#FFDD00"/>
<path d="M7 162.894V5.5C7 2.73858 9.23857 0.5 12 0.5H348V144.117H322.963H38.7034C37.3249 144.117 36.0076 144.686 35.0627 145.69L15.6406 166.321C12.5372 169.618 7 167.422 7 162.894Z" fill="#F5F5F5" stroke="#FFDD00"/>
<path d="M26.936 57.3H42.488C47.736 57.3 51.672 58.708 54.296 61.524C56.92 64.34 58.232 68.468 58.232 73.908V80.532C58.232 85.972 56.92 90.1 54.296 92.916C51.672 95.732 47.736 97.14 42.488 97.14H37.496V124.5H26.936V57.3ZM42.488 87.54C44.216 87.54 45.496 87.06 46.328 86.1C47.224 85.14 47.672 83.508 47.672 81.204V73.236C47.672 70.932 47.224 69.3 46.328 68.34C45.496 67.38 44.216 66.9 42.488 66.9H37.496V87.54H42.488ZM79.2313 125.46C74.0473 125.46 70.0793 123.988 67.3273 121.044C64.5753 118.1 63.1992 113.94 63.1992 108.564V73.236C63.1992 67.86 64.5753 63.7 67.3273 60.756C70.0793 57.812 74.0473 56.34 79.2313 56.34C84.4153 56.34 88.3833 57.812 91.1353 60.756C93.8873 63.7 95.2633 67.86 95.2633 73.236V108.564C95.2633 113.94 93.8873 118.1 91.1353 121.044C88.3833 123.988 84.4153 125.46 79.2313 125.46ZM79.2313 115.86C82.8793 115.86 84.7032 113.652 84.7032 109.236V72.564C84.7032 68.148 82.8793 65.94 79.2313 65.94C75.5833 65.94 73.7593 68.148 73.7593 72.564V109.236C73.7593 113.652 75.5833 115.86 79.2313 115.86ZM102.405 57.3H118.053C123.493 57.3 127.461 58.58 129.957 61.14C132.453 63.636 133.701 67.508 133.701 72.756V76.884C133.701 83.86 131.397 88.276 126.789 90.132V90.324C129.349 91.092 131.141 92.66 132.165 95.028C133.253 97.396 133.797 100.564 133.797 104.532V116.34C133.797 118.26 133.861 119.828 133.989 121.044C134.117 122.196 134.437 123.348 134.949 124.5H124.197C123.813 123.412 123.557 122.388 123.429 121.428C123.301 120.468 123.237 118.74 123.237 116.244V103.956C123.237 100.884 122.725 98.74 121.701 97.524C120.741 96.308 119.045 95.7 116.613 95.7H112.965V124.5H102.405V57.3ZM116.805 86.1C118.917 86.1 120.485 85.556 121.509 84.468C122.597 83.38 123.141 81.556 123.141 78.996V73.812C123.141 71.38 122.693 69.62 121.797 68.532C120.965 67.444 119.621 66.9 117.765 66.9H112.965V86.1H116.805ZM149.192 66.9H138.152V57.3H170.792V66.9H159.752V124.5H149.192V66.9ZM175.905 57.3H203.841V66.9H186.465V85.62H200.097V95.22H186.465V124.5H175.905V57.3ZM224.169 125.46C218.985 125.46 215.017 123.988 212.265 121.044C209.513 118.1 208.137 113.94 208.137 108.564V73.236C208.137 67.86 209.513 63.7 212.265 60.756C215.017 57.812 218.985 56.34 224.169 56.34C229.353 56.34 233.321 57.812 236.073 60.756C238.825 63.7 240.201 67.86 240.201 73.236V108.564C240.201 113.94 238.825 118.1 236.073 121.044C233.321 123.988 229.353 125.46 224.169 125.46ZM224.169 115.86C227.817 115.86 229.641 113.652 229.641 109.236V72.564C229.641 68.148 227.817 65.94 224.169 65.94C220.521 65.94 218.697 68.148 218.697 72.564V109.236C218.697 113.652 220.521 115.86 224.169 115.86ZM247.342 57.3H257.902V114.9H275.278V124.5H247.342V57.3ZM280.342 57.3H290.902V124.5H280.342V57.3ZM314.075 125.46C308.891 125.46 304.923 123.988 302.171 121.044C299.419 118.1 298.043 113.94 298.043 108.564V73.236C298.043 67.86 299.419 63.7 302.171 60.756C304.923 57.812 308.891 56.34 314.075 56.34C319.259 56.34 323.227 57.812 325.979 60.756C328.731 63.7 330.107 67.86 330.107 73.236V108.564C330.107 113.94 328.731 118.1 325.979 121.044C323.227 123.988 319.259 125.46 314.075 125.46ZM314.075 115.86C317.723 115.86 319.547 113.652 319.547 109.236V72.564C319.547 68.148 317.723 65.94 314.075 65.94C310.427 65.94 308.603 68.148 308.603 72.564V109.236C308.603 113.652 310.427 115.86 314.075 115.86Z" fill="#FFDD00"/>
<path d="M26.7081 38.5V16.1H31.1881V25.124H40.4681V16.1H44.9481V38.5H40.4681V29.156H31.1881V38.5H26.7081ZM52.3696 38.916C51.5376 38.916 50.8443 38.6387 50.2896 38.084C49.7563 37.5293 49.4896 36.868 49.4896 36.1C49.4896 35.3533 49.7563 34.7027 50.2896 34.148C50.8443 33.5933 51.5376 33.316 52.3696 33.316C53.2016 33.316 53.8843 33.5933 54.4176 34.148C54.951 34.7027 55.2176 35.3533 55.2176 36.1C55.2176 36.868 54.951 37.5293 54.4176 38.084C53.8843 38.6387 53.2016 38.916 52.3696 38.916ZM74.1616 38.916C72.391 38.916 70.759 38.5427 69.2656 37.796C67.7936 37.028 66.567 35.7907 65.5856 34.084L69.4576 31.62C70.0336 32.772 70.759 33.6147 71.6336 34.148C72.5083 34.66 73.4363 34.916 74.4176 34.916C75.463 34.916 76.2843 34.6813 76.8816 34.212C77.479 33.7427 77.7776 33.124 77.7776 32.356C77.7776 31.6093 77.543 31.012 77.0736 30.564C76.6043 30.116 75.975 29.7533 75.1856 29.476C74.4176 29.1987 73.575 28.9427 72.6576 28.708C70.9296 28.26 69.5536 27.524 68.5296 26.5C67.5056 25.4547 66.9936 24.0893 66.9936 22.404C66.9936 21.06 67.3243 19.8867 67.9856 18.884C68.647 17.8813 69.5643 17.1027 70.7376 16.548C71.9323 15.9933 73.319 15.716 74.8976 15.716C76.647 15.716 78.1083 16.0787 79.2816 16.804C80.455 17.5293 81.4576 18.5533 82.2896 19.876L78.4496 22.244C77.9163 21.3693 77.3616 20.7293 76.7856 20.324C76.2096 19.9187 75.5056 19.716 74.6736 19.716C73.7776 19.716 73.031 19.94 72.4336 20.388C71.8576 20.836 71.5696 21.4333 71.5696 22.18C71.5696 23.012 71.911 23.62 72.5936 24.004C73.2976 24.3667 74.1403 24.6973 75.1216 24.996C75.783 25.2093 76.519 25.4653 77.3296 25.764C78.1616 26.0413 78.9616 26.436 79.7296 26.948C80.4976 27.4387 81.127 28.1 81.6176 28.932C82.1083 29.764 82.3536 30.82 82.3536 32.1C82.3536 33.444 82.023 34.628 81.3616 35.652C80.7003 36.676 79.7616 37.476 78.5456 38.052C77.3296 38.628 75.8683 38.916 74.1616 38.916ZM94.3786 38.916C92.672 38.916 91.168 38.5213 89.8666 37.732C88.5653 36.9427 87.552 35.8973 86.8266 34.596C86.1226 33.2733 85.7706 31.812 85.7706 30.212C85.7706 28.612 86.144 27.1507 86.8906 25.828C87.6373 24.484 88.6506 23.4173 89.9306 22.628C91.232 21.8387 92.7146 21.444 94.3786 21.444C96.0426 21.444 97.504 21.8387 98.7626 22.628C100.043 23.4173 101.035 24.484 101.739 25.828C102.464 27.1507 102.827 28.612 102.827 30.212C102.827 30.4467 102.816 30.692 102.795 30.948C102.773 31.204 102.741 31.4707 102.699 31.748H90.2506C90.4853 32.7293 90.9546 33.5293 91.6586 34.148C92.384 34.7667 93.2906 35.076 94.3786 35.076C95.3173 35.076 96.128 34.8627 96.8106 34.436C97.5146 34.0093 98.0586 33.476 98.4426 32.836L101.803 35.364C101.141 36.4093 100.149 37.2627 98.8266 37.924C97.504 38.5853 96.0213 38.916 94.3786 38.916ZM94.3146 25.156C93.2906 25.156 92.416 25.4653 91.6906 26.084C90.9653 26.7027 90.4853 27.5133 90.2506 28.516H98.4746C98.24 27.5987 97.7493 26.8093 97.0026 26.148C96.2773 25.4867 95.3813 25.156 94.3146 25.156ZM112.642 38.5C110.999 38.5 109.741 38.0947 108.866 37.284C107.991 36.4733 107.554 35.1613 107.554 33.348V25.54H105.218V21.86H107.554V18.5L111.874 18.052V21.86H115.394V25.54H111.874V33.124C111.874 34.148 112.322 34.66 113.218 34.66H115.01V38.5H112.642ZM119.078 38.5V15.14H123.398V24.164C124.294 22.372 125.969 21.476 128.422 21.476C129.617 21.476 130.694 21.7533 131.654 22.308C132.614 22.8627 133.371 23.652 133.926 24.676C134.481 25.7 134.758 26.916 134.758 28.324V38.5H130.438V29.38C130.438 27.9293 130.107 26.884 129.446 26.244C128.785 25.5827 127.921 25.252 126.854 25.252C125.937 25.252 125.126 25.5827 124.422 26.244C123.739 26.884 123.398 27.9293 123.398 29.38V38.5H119.078Z" fill="#949494"/>
<mask id="path-5-inside-1_3_128" fill="white">
<path d="M26.936 57.3H42.488C47.736 57.3 51.672 58.708 54.296 61.524C56.92 64.34 58.232 68.468 58.232 73.908V80.532C58.232 85.972 56.92 90.1 54.296 92.916C51.672 95.732 47.736 97.14 42.488 97.14H37.496V124.5H26.936V57.3ZM42.488 87.54C44.216 87.54 45.496 87.06 46.328 86.1C47.224 85.14 47.672 83.508 47.672 81.204V73.236C47.672 70.932 47.224 69.3 46.328 68.34C45.496 67.38 44.216 66.9 42.488 66.9H37.496V87.54H42.488ZM79.2313 125.46C74.0473 125.46 70.0793 123.988 67.3273 121.044C64.5753 118.1 63.1992 113.94 63.1992 108.564V73.236C63.1992 67.86 64.5753 63.7 67.3273 60.756C70.0793 57.812 74.0473 56.34 79.2313 56.34C84.4153 56.34 88.3833 57.812 91.1353 60.756C93.8873 63.7 95.2633 67.86 95.2633 73.236V108.564C95.2633 113.94 93.8873 118.1 91.1353 121.044C88.3833 123.988 84.4153 125.46 79.2313 125.46ZM79.2313 115.86C82.8793 115.86 84.7032 113.652 84.7032 109.236V72.564C84.7032 68.148 82.8793 65.94 79.2313 65.94C75.5833 65.94 73.7593 68.148 73.7593 72.564V109.236C73.7593 113.652 75.5833 115.86 79.2313 115.86ZM102.405 57.3H118.053C123.493 57.3 127.461 58.58 129.957 61.14C132.453 63.636 133.701 67.508 133.701 72.756V76.884C133.701 83.86 131.397 88.276 126.789 90.132V90.324C129.349 91.092 131.141 92.66 132.165 95.028C133.253 97.396 133.797 100.564 133.797 104.532V116.34C133.797 118.26 133.861 119.828 133.989 121.044C134.117 122.196 134.437 123.348 134.949 124.5H124.197C123.813 123.412 123.557 122.388 123.429 121.428C123.301 120.468 123.237 118.74 123.237 116.244V103.956C123.237 100.884 122.725 98.74 121.701 97.524C120.741 96.308 119.045 95.7 116.613 95.7H112.965V124.5H102.405V57.3ZM116.805 86.1C118.917 86.1 120.485 85.556 121.509 84.468C122.597 83.38 123.141 81.556 123.141 78.996V73.812C123.141 71.38 122.693 69.62 121.797 68.532C120.965 67.444 119.621 66.9 117.765 66.9H112.965V86.1H116.805ZM149.192 66.9H138.152V57.3H170.792V66.9H159.752V124.5H149.192V66.9ZM175.905 57.3H203.841V66.9H186.465V85.62H200.097V95.22H186.465V124.5H175.905V57.3ZM224.169 125.46C218.985 125.46 215.017 123.988 212.265 121.044C209.513 118.1 208.137 113.94 208.137 108.564V73.236C208.137 67.86 209.513 63.7 212.265 60.756C215.017 57.812 218.985 56.34 224.169 56.34C229.353 56.34 233.321 57.812 236.073 60.756C238.825 63.7 240.201 67.86 240.201 73.236V108.564C240.201 113.94 238.825 118.1 236.073 121.044C233.321 123.988 229.353 125.46 224.169 125.46ZM224.169 115.86C227.817 115.86 229.641 113.652 229.641 109.236V72.564C229.641 68.148 227.817 65.94 224.169 65.94C220.521 65.94 218.697 68.148 218.697 72.564V109.236C218.697 113.652 220.521 115.86 224.169 115.86ZM247.342 57.3H257.902V114.9H275.278V124.5H247.342V57.3ZM280.342 57.3H290.902V124.5H280.342V57.3ZM314.075 125.46C308.891 125.46 304.923 123.988 302.171 121.044C299.419 118.1 298.043 113.94 298.043 108.564V73.236C298.043 67.86 299.419 63.7 302.171 60.756C304.923 57.812 308.891 56.34 314.075 56.34C319.259 56.34 323.227 57.812 325.979 60.756C328.731 63.7 330.107 67.86 330.107 73.236V108.564C330.107 113.94 328.731 118.1 325.979 121.044C323.227 123.988 319.259 125.46 314.075 125.46ZM314.075 115.86C317.723 115.86 319.547 113.652 319.547 109.236V72.564C319.547 68.148 317.723 65.94 314.075 65.94C310.427 65.94 308.603 68.148 308.603 72.564V109.236C308.603 113.652 310.427 115.86 314.075 115.86Z"/>
</mask>
<path d="M26.936 57.3V56.3H25.936V57.3H26.936ZM54.296 61.524L53.5644 62.2057V62.2057L54.296 61.524ZM54.296 92.916L53.5644 92.2343V92.2343L54.296 92.916ZM37.496 97.14V96.14H36.496V97.14H37.496ZM37.496 124.5V125.5H38.496V124.5H37.496ZM26.936 124.5H25.936V125.5H26.936V124.5ZM46.328 86.1L45.5969 85.4177L45.5844 85.4311L45.5723 85.4451L46.328 86.1ZM46.328 68.34L45.5723 68.9949L45.5844 69.0088L45.5969 69.0223L46.328 68.34ZM37.496 66.9V65.9H36.496V66.9H37.496ZM37.496 87.54H36.496V88.54H37.496V87.54ZM26.936 57.3V58.3H42.488V57.3V56.3H26.936V57.3ZM42.488 57.3V58.3C47.5631 58.3 51.1906 59.6583 53.5644 62.2057L54.296 61.524L55.0276 60.8423C52.1534 57.7577 47.909 56.3 42.488 56.3V57.3ZM54.296 61.524L53.5644 62.2057C55.9558 64.7721 57.232 68.6164 57.232 73.908H58.232H59.232C59.232 68.3196 57.8842 63.9079 55.0276 60.8423L54.296 61.524ZM58.232 73.908H57.232V80.532H58.232H59.232V73.908H58.232ZM58.232 80.532H57.232C57.232 85.8236 55.9558 89.6679 53.5644 92.2343L54.296 92.916L55.0276 93.5977C57.8842 90.5321 59.232 86.1204 59.232 80.532H58.232ZM54.296 92.916L53.5644 92.2343C51.1906 94.7817 47.5631 96.14 42.488 96.14V97.14V98.14C47.909 98.14 52.1534 96.6823 55.0276 93.5977L54.296 92.916ZM42.488 97.14V96.14H37.496V97.14V98.14H42.488V97.14ZM37.496 97.14H36.496V124.5H37.496H38.496V97.14H37.496ZM37.496 124.5V123.5H26.936V124.5V125.5H37.496V124.5ZM26.936 124.5H27.936V57.3H26.936H25.936V124.5H26.936ZM42.488 87.54V88.54C44.3963 88.54 46.0001 88.0052 47.0837 86.7549L46.328 86.1L45.5723 85.4451C44.9919 86.1148 44.0357 86.54 42.488 86.54V87.54ZM46.328 86.1L47.0591 86.7823C48.2185 85.54 48.672 83.5864 48.672 81.204H47.672H46.672C46.672 83.4296 46.2295 84.74 45.5969 85.4177L46.328 86.1ZM47.672 81.204H48.672V73.236H47.672H46.672V81.204H47.672ZM47.672 73.236H48.672C48.672 70.8536 48.2185 68.9 47.0591 67.6577L46.328 68.34L45.5969 69.0223C46.2295 69.7 46.672 71.0104 46.672 73.236H47.672ZM46.328 68.34L47.0837 67.6851C46.0001 66.4348 44.3963 65.9 42.488 65.9V66.9V67.9C44.0357 67.9 44.9919 68.3252 45.5723 68.9949L46.328 68.34ZM42.488 66.9V65.9H37.496V66.9V67.9H42.488V66.9ZM37.496 66.9H36.496V87.54H37.496H38.496V66.9H37.496ZM37.496 87.54V88.54H42.488V87.54V86.54H37.496V87.54ZM67.3273 121.044L68.0578 120.361V120.361L67.3273 121.044ZM67.3273 60.756L68.0578 61.4389V61.4389L67.3273 60.756ZM91.1353 60.756L90.4047 61.4389V61.4389L91.1353 60.756ZM91.1353 121.044L90.4047 120.361V120.361L91.1353 121.044ZM79.2313 125.46V124.46C74.2403 124.46 70.5702 123.049 68.0578 120.361L67.3273 121.044L66.5967 121.727C69.5883 124.927 73.8542 126.46 79.2313 126.46V125.46ZM67.3273 121.044L68.0578 120.361C65.5302 117.657 64.1992 113.773 64.1992 108.564H63.1992H62.1992C62.1992 114.107 63.6203 118.543 66.5967 121.727L67.3273 121.044ZM63.1992 108.564H64.1992V73.236H63.1992H62.1992V108.564H63.1992ZM63.1992 73.236H64.1992C64.1992 68.027 65.5302 64.1428 68.0578 61.4389L67.3273 60.756L66.5967 60.0731C63.6203 63.2572 62.1992 67.693 62.1992 73.236H63.1992ZM67.3273 60.756L68.0578 61.4389C70.5702 58.7512 74.2403 57.34 79.2313 57.34V56.34V55.34C73.8542 55.34 69.5883 56.8728 66.5967 60.0731L67.3273 60.756ZM79.2313 56.34V57.34C84.2222 57.34 87.8923 58.7512 90.4047 61.4389L91.1353 60.756L91.8658 60.0731C88.8742 56.8728 84.6083 55.34 79.2313 55.34V56.34ZM91.1353 60.756L90.4047 61.4389C92.9323 64.1428 94.2633 68.027 94.2633 73.236H95.2633H96.2633C96.2633 67.693 94.8422 63.2572 91.8658 60.0731L91.1353 60.756ZM95.2633 73.236H94.2633V108.564H95.2633H96.2633V73.236H95.2633ZM95.2633 108.564H94.2633C94.2633 113.773 92.9323 117.657 90.4047 120.361L91.1353 121.044L91.8658 121.727C94.8422 118.543 96.2633 114.107 96.2633 108.564H95.2633ZM91.1353 121.044L90.4047 120.361C87.8923 123.049 84.2222 124.46 79.2313 124.46V125.46V126.46C84.6083 126.46 88.8742 124.927 91.8658 121.727L91.1353 121.044ZM79.2313 115.86V116.86C81.2651 116.86 82.9543 116.235 84.1062 114.841C85.2279 113.483 85.7033 111.557 85.7033 109.236H84.7033H83.7033C83.7033 111.331 83.2666 112.717 82.5643 113.567C81.8922 114.381 80.8454 114.86 79.2313 114.86V115.86ZM84.7033 109.236H85.7033V72.564H84.7033H83.7033V109.236H84.7033ZM84.7033 72.564H85.7033C85.7033 70.2434 85.2279 68.317 84.1062 66.9591C82.9543 65.5647 81.2651 64.94 79.2313 64.94V65.94V66.94C80.8454 66.94 81.8922 67.4193 82.5643 68.2329C83.2666 69.083 83.7033 70.4686 83.7033 72.564H84.7033ZM79.2313 65.94V64.94C77.1974 64.94 75.5082 65.5647 74.3563 66.9591C73.2346 68.317 72.7593 70.2434 72.7593 72.564H73.7593H74.7593C74.7593 70.4686 75.1959 69.083 75.8982 68.2329C76.5703 67.4193 77.6171 66.94 79.2313 66.94V65.94ZM73.7593 72.564H72.7593V109.236H73.7593H74.7593V72.564H73.7593ZM73.7593 109.236H72.7593C72.7593 111.557 73.2346 113.483 74.3563 114.841C75.5082 116.235 77.1974 116.86 79.2313 116.86V115.86V114.86C77.6171 114.86 76.5703 114.381 75.8982 113.567C75.1959 112.717 74.7593 111.331 74.7593 109.236H73.7593ZM102.405 57.3V56.3H101.405V57.3H102.405ZM129.957 61.14L129.241 61.8382L129.25 61.8471L129.957 61.14ZM126.789 90.132L126.415 89.2044L125.789 89.4567V90.132H126.789ZM126.789 90.324H125.789V91.068L126.501 91.2818L126.789 90.324ZM132.165 95.028L131.247 95.4249L131.251 95.4353L131.256 95.4455L132.165 95.028ZM133.989 121.044L132.994 121.149L132.995 121.154L133.989 121.044ZM134.949 124.5V125.5H136.488L135.863 124.094L134.949 124.5ZM124.197 124.5L123.254 124.833L123.489 125.5H124.197V124.5ZM121.701 97.524L120.916 98.1436L120.926 98.156L120.936 98.1681L121.701 97.524ZM112.965 95.7V94.7H111.965V95.7H112.965ZM112.965 124.5V125.5H113.965V124.5H112.965ZM102.405 124.5H101.405V125.5H102.405V124.5ZM121.509 84.468L120.802 83.7609L120.791 83.7716L120.781 83.7826L121.509 84.468ZM121.797 68.532L121.002 69.1395L121.013 69.1538L121.025 69.1677L121.797 68.532ZM112.965 66.9V65.9H111.965V66.9H112.965ZM112.965 86.1H111.965V87.1H112.965V86.1ZM102.405 57.3V58.3H118.053V57.3V56.3H102.405V57.3ZM118.053 57.3V58.3C123.362 58.3 127.012 59.5518 129.241 61.8381L129.957 61.14L130.673 60.4419C127.91 57.6081 123.624 56.3 118.053 56.3V57.3ZM129.957 61.14L129.25 61.8471C131.484 64.0812 132.701 67.6452 132.701 72.756H133.701H134.701C134.701 67.3708 133.422 63.1908 130.664 60.4329L129.957 61.14ZM133.701 72.756H132.701V76.884H133.701H134.701V72.756H133.701ZM133.701 76.884H132.701C132.701 80.2717 132.14 82.9458 131.086 84.9654C130.044 86.9629 128.498 88.3657 126.415 89.2044L126.789 90.132L127.162 91.0596C129.688 90.0423 131.597 88.3091 132.859 85.8906C134.11 83.4942 134.701 80.4723 134.701 76.884H133.701ZM126.789 90.132H125.789V90.324H126.789H127.789V90.132H126.789ZM126.789 90.324L126.501 91.2818C128.79 91.9685 130.345 93.3387 131.247 95.4249L132.165 95.028L133.083 94.6311C131.937 91.9812 129.907 90.2155 127.076 89.3662L126.789 90.324ZM132.165 95.028L131.256 95.4455C132.261 97.6322 132.797 100.64 132.797 104.532H133.797H134.797C134.797 100.488 134.245 97.1598 133.073 94.6105L132.165 95.028ZM133.797 104.532H132.797V116.34H133.797H134.797V104.532H133.797ZM133.797 116.34H132.797C132.797 118.278 132.861 119.884 132.994 121.149L133.989 121.044L134.983 120.939C134.86 119.772 134.797 118.242 134.797 116.34H133.797ZM133.989 121.044L132.995 121.154C133.135 122.417 133.485 123.668 134.035 124.906L134.949 124.5L135.863 124.094C135.389 123.028 135.098 121.975 134.983 120.934L133.989 121.044ZM134.949 124.5V123.5H124.197V124.5V125.5H134.949V124.5ZM124.197 124.5L125.14 124.167C124.774 123.132 124.537 122.176 124.42 121.296L123.429 121.428L122.438 121.56C122.576 122.6 122.851 123.692 123.254 124.833L124.197 124.5ZM123.429 121.428L124.42 121.296C124.302 120.41 124.237 118.743 124.237 116.244H123.237H122.237C122.237 118.736 122.3 120.526 122.438 121.56L123.429 121.428ZM123.237 116.244H124.237V103.956H123.237H122.237V116.244H123.237ZM123.237 103.956H124.237C124.237 100.838 123.73 98.3815 122.466 96.8799L121.701 97.524L120.936 98.1681C121.719 99.0985 122.237 100.93 122.237 103.956H123.237ZM121.701 97.524L122.486 96.9044C121.249 95.3376 119.175 94.7 116.613 94.7V95.7V96.7C118.914 96.7 120.233 97.2784 120.916 98.1436L121.701 97.524ZM116.613 95.7V94.7H112.965V95.7V96.7H116.613V95.7ZM112.965 95.7H111.965V124.5H112.965H113.965V95.7H112.965ZM112.965 124.5V123.5H102.405V124.5V125.5H112.965V124.5ZM102.405 124.5H103.405V57.3H102.405H101.405V124.5H102.405ZM116.805 86.1V87.1C119.076 87.1 120.957 86.5136 122.237 85.1534L121.509 84.468L120.781 83.7826C120.013 84.5984 118.757 85.1 116.805 85.1V86.1ZM121.509 84.468L122.216 85.1751C123.583 83.8078 124.141 81.6546 124.141 78.996H123.141H122.141C122.141 81.4574 121.61 82.9522 120.802 83.7609L121.509 84.468ZM123.141 78.996H124.141V73.812H123.141H122.141V78.996H123.141ZM123.141 73.812H124.141C124.141 71.3006 123.686 69.2535 122.569 67.8963L121.797 68.532L121.025 69.1677C121.699 69.9865 122.141 71.4594 122.141 73.812H123.141ZM121.797 68.532L122.591 67.9245C121.508 66.508 119.813 65.9 117.765 65.9V66.9V67.9C119.428 67.9 120.422 68.38 121.002 69.1395L121.797 68.532ZM117.765 66.9V65.9H112.965V66.9V67.9H117.765V66.9ZM112.965 66.9H111.965V86.1H112.965H113.965V66.9H112.965ZM112.965 86.1V87.1H116.805V86.1V85.1H112.965V86.1ZM149.192 66.9H150.192V65.9H149.192V66.9ZM138.152 66.9H137.152V67.9H138.152V66.9ZM138.152 57.3V56.3H137.152V57.3H138.152ZM170.792 57.3H171.792V56.3H170.792V57.3ZM170.792 66.9V67.9H171.792V66.9H170.792ZM159.752 66.9V65.9H158.752V66.9H159.752ZM159.752 124.5V125.5H160.752V124.5H159.752ZM149.192 124.5H148.192V125.5H149.192V124.5ZM149.192 66.9V65.9H138.152V66.9V67.9H149.192V66.9ZM138.152 66.9H139.152V57.3H138.152H137.152V66.9H138.152ZM138.152 57.3V58.3H170.792V57.3V56.3H138.152V57.3ZM170.792 57.3H169.792V66.9H170.792H171.792V57.3H170.792ZM170.792 66.9V65.9H159.752V66.9V67.9H170.792V66.9ZM159.752 66.9H158.752V124.5H159.752H160.752V66.9H159.752ZM159.752 124.5V123.5H149.192V124.5V125.5H159.752V124.5ZM149.192 124.5H150.192V66.9H149.192H148.192V124.5H149.192ZM175.905 57.3V56.3H174.905V57.3H175.905ZM203.841 57.3H204.841V56.3H203.841V57.3ZM203.841 66.9V67.9H204.841V66.9H203.841ZM186.465 66.9V65.9H185.465V66.9H186.465ZM186.465 85.62H185.465V86.62H186.465V85.62ZM200.097 85.62H201.097V84.62H200.097V85.62ZM200.097 95.22V96.22H201.097V95.22H200.097ZM186.465 95.22V94.22H185.465V95.22H186.465ZM186.465 124.5V125.5H187.465V124.5H186.465ZM175.905 124.5H174.905V125.5H175.905V124.5ZM175.905 57.3V58.3H203.841V57.3V56.3H175.905V57.3ZM203.841 57.3H202.841V66.9H203.841H204.841V57.3H203.841ZM203.841 66.9V65.9H186.465V66.9V67.9H203.841V66.9ZM186.465 66.9H185.465V85.62H186.465H187.465V66.9H186.465ZM186.465 85.62V86.62H200.097V85.62V84.62H186.465V85.62ZM200.097 85.62H199.097V95.22H200.097H201.097V85.62H200.097ZM200.097 95.22V94.22H186.465V95.22V96.22H200.097V95.22ZM186.465 95.22H185.465V124.5H186.465H187.465V95.22H186.465ZM186.465 124.5V123.5H175.905V124.5V125.5H186.465V124.5ZM175.905 124.5H176.905V57.3H175.905H174.905V124.5H175.905ZM212.265 121.044L212.995 120.361V120.361L212.265 121.044ZM212.265 60.756L212.995 61.4389V61.4389L212.265 60.756ZM236.073 60.756L235.342 61.4389V61.4389L236.073 60.756ZM236.073 121.044L235.342 120.361V120.361L236.073 121.044ZM224.169 125.46V124.46C219.178 124.46 215.508 123.049 212.995 120.361L212.265 121.044L211.534 121.727C214.526 124.927 218.792 126.46 224.169 126.46V125.46ZM212.265 121.044L212.995 120.361C210.468 117.657 209.137 113.773 209.137 108.564H208.137H207.137C207.137 114.107 208.558 118.543 211.534 121.727L212.265 121.044ZM208.137 108.564H209.137V73.236H208.137H207.137V108.564H208.137ZM208.137 73.236H209.137C209.137 68.027 210.468 64.1428 212.995 61.4389L212.265 60.756L211.534 60.0731C208.558 63.2572 207.137 67.693 207.137 73.236H208.137ZM212.265 60.756L212.995 61.4389C215.508 58.7512 219.178 57.34 224.169 57.34V56.34V55.34C218.792 55.34 214.526 56.8728 211.534 60.0731L212.265 60.756ZM224.169 56.34V57.34C229.16 57.34 232.83 58.7512 235.342 61.4389L236.073 60.756L236.803 60.0731C233.812 56.8728 229.546 55.34 224.169 55.34V56.34ZM236.073 60.756L235.342 61.4389C237.87 64.1428 239.201 68.027 239.201 73.236H240.201H241.201C241.201 67.693 239.78 63.2572 236.803 60.0731L236.073 60.756ZM240.201 73.236H239.201V108.564H240.201H241.201V73.236H240.201ZM240.201 108.564H239.201C239.201 113.773 237.87 117.657 235.342 120.361L236.073 121.044L236.803 121.727C239.78 118.543 241.201 114.107 241.201 108.564H240.201ZM236.073 121.044L235.342 120.361C232.83 123.049 229.16 124.46 224.169 124.46V125.46V126.46C229.546 126.46 233.812 124.927 236.803 121.727L236.073 121.044ZM224.169 115.86V116.86C226.203 116.86 227.892 116.235 229.044 114.841C230.165 113.483 230.641 111.557 230.641 109.236H229.641H228.641C228.641 111.331 228.204 112.717 227.502 113.567C226.83 114.381 225.783 114.86 224.169 114.86V115.86ZM229.641 109.236H230.641V72.564H229.641H228.641V109.236H229.641ZM229.641 72.564H230.641C230.641 70.2434 230.165 68.317 229.044 66.9591C227.892 65.5647 226.203 64.94 224.169 64.94V65.94V66.94C225.783 66.94 226.83 67.4193 227.502 68.2329C228.204 69.083 228.641 70.4686 228.641 72.564H229.641ZM224.169 65.94V64.94C222.135 64.94 220.446 65.5647 219.294 66.9591C218.172 68.317 217.697 70.2434 217.697 72.564H218.697H219.697C219.697 70.4686 220.133 69.083 220.836 68.2329C221.508 67.4193 222.555 66.94 224.169 66.94V65.94ZM218.697 72.564H217.697V109.236H218.697H219.697V72.564H218.697ZM218.697 109.236H217.697C217.697 111.557 218.172 113.483 219.294 114.841C220.446 116.235 222.135 116.86 224.169 116.86V115.86V114.86C222.555 114.86 221.508 114.381 220.836 113.567C220.133 112.717 219.697 111.331 219.697 109.236H218.697ZM247.342 57.3V56.3H246.342V57.3H247.342ZM257.902 57.3H258.902V56.3H257.902V57.3ZM257.902 114.9H256.902V115.9H257.902V114.9ZM275.278 114.9H276.278V113.9H275.278V114.9ZM275.278 124.5V125.5H276.278V124.5H275.278ZM247.342 124.5H246.342V125.5H247.342V124.5ZM247.342 57.3V58.3H257.902V57.3V56.3H247.342V57.3ZM257.902 57.3H256.902V114.9H257.902H258.902V57.3H257.902ZM257.902 114.9V115.9H275.278V114.9V113.9H257.902V114.9ZM275.278 114.9H274.278V124.5H275.278H276.278V114.9H275.278ZM275.278 124.5V123.5H247.342V124.5V125.5H275.278V124.5ZM247.342 124.5H248.342V57.3H247.342H246.342V124.5H247.342ZM280.342 57.3V56.3H279.342V57.3H280.342ZM290.902 57.3H291.902V56.3H290.902V57.3ZM290.902 124.5V125.5H291.902V124.5H290.902ZM280.342 124.5H279.342V125.5H280.342V124.5ZM280.342 57.3V58.3H290.902V57.3V56.3H280.342V57.3ZM290.902 57.3H289.902V124.5H290.902H291.902V57.3H290.902ZM290.902 124.5V123.5H280.342V124.5V125.5H290.902V124.5ZM280.342 124.5H281.342V57.3H280.342H279.342V124.5H280.342ZM302.171 121.044L302.902 120.361V120.361L302.171 121.044ZM302.171 60.756L302.902 61.4389V61.4389L302.171 60.756ZM325.979 60.756L325.248 61.4389V61.4389L325.979 60.756ZM325.979 121.044L325.248 120.361V120.361L325.979 121.044ZM314.075 125.46V124.46C309.084 124.46 305.414 123.049 302.902 120.361L302.171 121.044L301.44 121.727C304.432 124.927 308.698 126.46 314.075 126.46V125.46ZM302.171 121.044L302.902 120.361C300.374 117.657 299.043 113.773 299.043 108.564H298.043H297.043C297.043 114.107 298.464 118.543 301.44 121.727L302.171 121.044ZM298.043 108.564H299.043V73.236H298.043H297.043V108.564H298.043ZM298.043 73.236H299.043C299.043 68.027 300.374 64.1428 302.902 61.4389L302.171 60.756L301.44 60.0731C298.464 63.2572 297.043 67.693 297.043 73.236H298.043ZM302.171 60.756L302.902 61.4389C305.414 58.7512 309.084 57.34 314.075 57.34V56.34V55.34C308.698 55.34 304.432 56.8728 301.44 60.0731L302.171 60.756ZM314.075 56.34V57.34C319.066 57.34 322.736 58.7512 325.248 61.4389L325.979 60.756L326.71 60.0731C323.718 56.8728 319.452 55.34 314.075 55.34V56.34ZM325.979 60.756L325.248 61.4389C327.776 64.1428 329.107 68.027 329.107 73.236H330.107H331.107C331.107 67.693 329.686 63.2572 326.71 60.0731L325.979 60.756ZM330.107 73.236H329.107V108.564H330.107H331.107V73.236H330.107ZM330.107 108.564H329.107C329.107 113.773 327.776 117.657 325.248 120.361L325.979 121.044L326.71 121.727C329.686 118.543 331.107 114.107 331.107 108.564H330.107ZM325.979 121.044L325.248 120.361C322.736 123.049 319.066 124.46 314.075 124.46V125.46V126.46C319.452 126.46 323.718 124.927 326.71 121.727L325.979 121.044ZM314.075 115.86V116.86C316.109 116.86 317.798 116.235 318.95 114.841C320.072 113.483 320.547 111.557 320.547 109.236H319.547H318.547C318.547 111.331 318.11 112.717 317.408 113.567C316.736 114.381 315.689 114.86 314.075 114.86V115.86ZM319.547 109.236H320.547V72.564H319.547H318.547V109.236H319.547ZM319.547 72.564H320.547C320.547 70.2434 320.072 68.317 318.95 66.9591C317.798 65.5647 316.109 64.94 314.075 64.94V65.94V66.94C315.689 66.94 316.736 67.4193 317.408 68.2329C318.11 69.083 318.547 70.4686 318.547 72.564H319.547ZM314.075 65.94V64.94C312.041 64.94 310.352 65.5647 309.2 66.9591C308.078 68.317 307.603 70.2434 307.603 72.564H308.603H309.603C309.603 70.4686 310.04 69.083 310.742 68.2329C311.414 67.4193 312.461 66.94 314.075 66.94V65.94ZM308.603 72.564H307.603V109.236H308.603H309.603V72.564H308.603ZM308.603 109.236H307.603C307.603 111.557 308.078 113.483 309.2 114.841C310.352 116.235 312.041 116.86 314.075 116.86V115.86V114.86C312.461 114.86 311.414 114.381 310.742 113.567C310.04 112.717 309.603 111.331 309.603 109.236H308.603Z" fill="#FFDD00" mask="url(#path-5-inside-1_3_128)"/>
</svg>
