<svg width="266" height="69" viewBox="0 0 266 69" fill="none" xmlns="http://www.w3.org/2000/svg">
<rect width="266" height="69" rx="12" fill="#E7E7E7"/>
<rect x="7" y="6" width="61" height="57" rx="12" fill="#FFDD00"/>
<path d="M32.7574 29.322C35.1005 26.9789 38.8995 26.9789 41.2426 29.322L51.5467 39.626C54.5975 42.6769 53.5274 47.8542 49.5171 49.4456L39.2131 53.5345C37.7916 54.0986 36.2084 54.0986 34.7869 53.5345L24.4829 49.4456C20.4726 47.8542 19.4025 42.6769 22.4533 39.626L32.7574 29.322Z" fill="#F5F5F5"/>
<circle cx="36.6666" cy="25.0794" r="11.5" fill="#F5F5F5" stroke="#FFDD00"/>
<path d="M75.734 21L79.738 11.2H81.432L85.422 21H83.294L82.622 19.138H78.534L77.862 21H75.734ZM80.228 14.77L79.178 17.444H81.978L80.928 14.77C80.788 14.3967 80.6713 14.0233 80.578 13.65C80.4847 14.0513 80.368 14.4247 80.228 14.77ZM88.3666 21L85.3286 13.72H87.5686L89.0246 17.878C89.1553 18.2513 89.2579 18.6387 89.3326 19.04C89.4073 18.6387 89.5099 18.2513 89.6406 17.878L91.0966 13.72H93.2946L90.2706 21H88.3666ZM97.7026 23.982C96.9653 23.982 96.3073 23.8793 95.7286 23.674C95.1593 23.478 94.6553 23.1233 94.2166 22.61L95.3926 21.224C95.738 21.616 96.0973 21.882 96.4706 22.022C96.844 22.162 97.2593 22.232 97.7166 22.232C98.0526 22.232 98.3653 22.148 98.6546 21.98C98.944 21.812 99.1726 21.574 99.3406 21.266C99.518 20.9673 99.6066 20.6267 99.6066 20.244V19.922C99.4106 20.258 99.14 20.5287 98.7946 20.734C98.4586 20.9393 97.9966 21.042 97.4086 21.042C96.746 21.042 96.144 20.874 95.6026 20.538C95.0706 20.202 94.6506 19.754 94.3426 19.194C94.0346 18.6247 93.8806 17.99 93.8806 17.29C93.8806 16.59 94.0346 15.9553 94.3426 15.386C94.6506 14.8167 95.0706 14.3687 95.6026 14.042C96.144 13.706 96.746 13.538 97.4086 13.538C98.0153 13.538 98.4866 13.6453 98.8226 13.86C99.168 14.0747 99.4386 14.3593 99.6346 14.714V13.72H101.497V20.356C101.497 21.1027 101.333 21.7467 101.007 22.288C100.689 22.8293 100.246 23.2447 99.6766 23.534C99.1073 23.8327 98.4493 23.982 97.7026 23.982ZM97.7166 19.32C98.342 19.32 98.8273 19.124 99.1726 18.732C99.518 18.34 99.6906 17.8593 99.6906 17.29C99.6906 16.7207 99.518 16.24 99.1726 15.848C98.8273 15.456 98.342 15.26 97.7166 15.26C97.1006 15.26 96.62 15.456 96.2746 15.848C95.9386 16.24 95.7706 16.7207 95.7706 17.29C95.7706 17.654 95.8453 17.99 95.9946 18.298C96.1533 18.606 96.3773 18.8533 96.6666 19.04C96.956 19.2267 97.306 19.32 97.7166 19.32ZM104.598 21.182C104.234 21.182 103.931 21.0607 103.688 20.818C103.455 20.5753 103.338 20.286 103.338 19.95C103.338 19.6233 103.455 19.3387 103.688 19.096C103.931 18.8533 104.234 18.732 104.598 18.732C104.962 18.732 105.261 18.8533 105.494 19.096C105.727 19.3387 105.844 19.6233 105.844 19.95C105.844 20.286 105.727 20.5753 105.494 20.818C105.261 21.0607 104.962 21.182 104.598 21.182ZM115.522 21.182C114.794 21.182 114.117 21.0513 113.492 20.79C112.876 20.5287 112.335 20.1647 111.868 19.698C111.411 19.2313 111.051 18.6947 110.79 18.088C110.538 17.472 110.412 16.814 110.412 16.114C110.412 15.414 110.533 14.756 110.776 14.14C111.028 13.524 111.378 12.9827 111.826 12.516C112.283 12.0493 112.825 11.6853 113.45 11.424C114.075 11.1533 114.766 11.018 115.522 11.018C116.325 11.018 117.011 11.144 117.58 11.396C118.159 11.648 118.667 12.0353 119.106 12.558L117.72 13.762C117.132 13.146 116.399 12.838 115.522 12.838C114.897 12.838 114.351 12.9873 113.884 13.286C113.427 13.5847 113.072 13.9813 112.82 14.476C112.568 14.9707 112.442 15.5167 112.442 16.114C112.442 16.7113 112.568 17.2573 112.82 17.752C113.072 18.2373 113.431 18.6293 113.898 18.928C114.365 19.2173 114.92 19.362 115.564 19.362C116.04 19.362 116.46 19.2827 116.824 19.124C117.188 18.9653 117.515 18.7273 117.804 18.41L119.232 19.628C118.859 20.076 118.359 20.4493 117.734 20.748C117.118 21.0373 116.381 21.182 115.522 21.182ZM120.872 21V10.78H122.762V21H120.872ZM125.797 13.118C125.48 13.118 125.209 13.0107 124.985 12.796C124.771 12.572 124.663 12.306 124.663 11.998C124.663 11.6993 124.771 11.4427 124.985 11.228C125.209 11.004 125.48 10.892 125.797 10.892C126.124 10.892 126.395 11.004 126.609 11.228C126.824 11.4427 126.931 11.6993 126.931 11.998C126.931 12.3153 126.824 12.5813 126.609 12.796C126.395 13.0107 126.124 13.118 125.797 13.118ZM124.859 21V13.72H126.749V21H124.859ZM132.333 21.182C131.587 21.182 130.929 21.0093 130.359 20.664C129.79 20.3187 129.347 19.8613 129.029 19.292C128.721 18.7133 128.567 18.074 128.567 17.374C128.567 16.674 128.731 16.0347 129.057 15.456C129.384 14.868 129.827 14.4013 130.387 14.056C130.957 13.7107 131.605 13.538 132.333 13.538C133.061 13.538 133.701 13.7107 134.251 14.056C134.811 14.4013 135.245 14.868 135.553 15.456C135.871 16.0347 136.029 16.674 136.029 17.374C136.029 17.4767 136.025 17.584 136.015 17.696C136.006 17.808 135.992 17.9247 135.973 18.046H130.527C130.63 18.4753 130.835 18.8253 131.143 19.096C131.461 19.3667 131.857 19.502 132.333 19.502C132.744 19.502 133.099 19.4087 133.397 19.222C133.705 19.0353 133.943 18.802 134.111 18.522L135.581 19.628C135.292 20.0853 134.858 20.4587 134.279 20.748C133.701 21.0373 133.052 21.182 132.333 21.182ZM132.305 15.162C131.857 15.162 131.475 15.2973 131.157 15.568C130.84 15.8387 130.63 16.1933 130.527 16.632H134.125C134.023 16.2307 133.808 15.8853 133.481 15.596C133.164 15.3067 132.772 15.162 132.305 15.162ZM137.839 21V13.72H139.701V14.784C140.084 13.9627 140.826 13.552 141.927 13.552C142.45 13.552 142.921 13.6733 143.341 13.916C143.761 14.1587 144.092 14.504 144.335 14.952C144.578 15.4 144.699 15.932 144.699 16.548V21H142.809V17.01C142.809 16.3753 142.664 15.918 142.375 15.638C142.086 15.3487 141.708 15.204 141.241 15.204C140.84 15.204 140.485 15.3487 140.177 15.638C139.878 15.918 139.729 16.3753 139.729 17.01V21H137.839ZM149.37 21C148.651 21 148.101 20.8227 147.718 20.468C147.335 20.1133 147.144 19.5393 147.144 18.746V15.33H146.122V13.72H147.144V12.25L149.034 12.054V13.72H150.574V15.33H149.034V18.648C149.034 19.096 149.23 19.32 149.622 19.32H150.406V21H149.37ZM154.609 21.182C153.387 21.182 152.379 20.7573 151.585 19.908L152.859 18.746C153.391 19.3433 153.961 19.642 154.567 19.642C154.894 19.642 155.141 19.572 155.309 19.432C155.487 19.2827 155.575 19.1007 155.575 18.886C155.575 18.7553 155.543 18.6433 155.477 18.55C155.421 18.4567 155.295 18.368 155.099 18.284C154.913 18.2 154.628 18.116 154.245 18.032C153.592 17.8733 153.107 17.6773 152.789 17.444C152.472 17.2107 152.262 16.9493 152.159 16.66C152.057 16.3707 152.005 16.072 152.005 15.764C152.005 15.1293 152.243 14.602 152.719 14.182C153.205 13.7527 153.872 13.538 154.721 13.538C155.309 13.538 155.813 13.6267 156.233 13.804C156.653 13.9813 157.05 14.3127 157.423 14.798L156.051 15.848C155.874 15.568 155.673 15.3673 155.449 15.246C155.235 15.1247 155.006 15.064 154.763 15.064C154.502 15.064 154.283 15.1153 154.105 15.218C153.937 15.3207 153.853 15.484 153.853 15.708C153.853 15.8293 153.909 15.9507 154.021 16.072C154.133 16.184 154.404 16.296 154.833 16.408C155.543 16.5853 156.084 16.7953 156.457 17.038C156.831 17.2713 157.087 17.5373 157.227 17.836C157.367 18.1347 157.437 18.466 157.437 18.83C157.437 19.278 157.311 19.6793 157.059 20.034C156.817 20.3887 156.481 20.6687 156.051 20.874C155.631 21.0793 155.151 21.182 154.609 21.182ZM162.571 21V11.2H165.735C166.836 11.2 167.7 11.4567 168.325 11.97C168.96 12.474 169.277 13.2067 169.277 14.168C169.277 14.9427 169.067 15.568 168.647 16.044C168.236 16.52 167.662 16.8373 166.925 16.996L169.669 21H167.359L165.273 17.892C165.142 17.696 165.016 17.458 164.895 17.178H164.531V21H162.571ZM164.531 15.414H165.623C166.155 15.414 166.566 15.3113 166.855 15.106C167.144 14.8913 167.289 14.5833 167.289 14.182C167.289 13.79 167.144 13.4913 166.855 13.286C166.566 13.0713 166.155 12.964 165.623 12.964H164.531V15.414ZM174.252 21.182C173.506 21.182 172.848 21.0093 172.278 20.664C171.709 20.3187 171.266 19.8613 170.948 19.292C170.64 18.7133 170.486 18.074 170.486 17.374C170.486 16.674 170.65 16.0347 170.976 15.456C171.303 14.868 171.746 14.4013 172.306 14.056C172.876 13.7107 173.524 13.538 174.252 13.538C174.98 13.538 175.62 13.7107 176.17 14.056C176.73 14.4013 177.164 14.868 177.472 15.456C177.79 16.0347 177.948 16.674 177.948 17.374C177.948 17.4767 177.944 17.584 177.934 17.696C177.925 17.808 177.911 17.9247 177.892 18.046H172.446C172.549 18.4753 172.754 18.8253 173.062 19.096C173.38 19.3667 173.776 19.502 174.252 19.502C174.663 19.502 175.018 19.4087 175.316 19.222C175.624 19.0353 175.862 18.802 176.03 18.522L177.5 19.628C177.211 20.0853 176.777 20.4587 176.198 20.748C175.62 21.0373 174.971 21.182 174.252 21.182ZM174.224 15.162C173.776 15.162 173.394 15.2973 173.076 15.568C172.759 15.8387 172.549 16.1933 172.446 16.632H176.044C175.942 16.2307 175.727 15.8853 175.4 15.596C175.083 15.3067 174.691 15.162 174.224 15.162ZM181.602 21L178.564 13.72H180.804L182.26 17.878C182.391 18.2513 182.494 18.6387 182.568 19.04C182.643 18.6387 182.746 18.2513 182.876 17.878L184.332 13.72H186.53L183.506 21H181.602ZM188.799 13.118C188.482 13.118 188.211 13.0107 187.987 12.796C187.772 12.572 187.665 12.306 187.665 11.998C187.665 11.6993 187.772 11.4427 187.987 11.228C188.211 11.004 188.482 10.892 188.799 10.892C189.126 10.892 189.396 11.004 189.611 11.228C189.826 11.4427 189.933 11.6993 189.933 11.998C189.933 12.3153 189.826 12.5813 189.611 12.796C189.396 13.0107 189.126 13.118 188.799 13.118ZM187.861 21V13.72H189.751V21H187.861ZM195.335 21.182C194.588 21.182 193.93 21.0093 193.361 20.664C192.792 20.3187 192.348 19.8613 192.031 19.292C191.723 18.7133 191.569 18.074 191.569 17.374C191.569 16.674 191.732 16.0347 192.059 15.456C192.386 14.868 192.829 14.4013 193.389 14.056C193.958 13.7107 194.607 13.538 195.335 13.538C196.063 13.538 196.702 13.7107 197.253 14.056C197.813 14.4013 198.247 14.868 198.555 15.456C198.872 16.0347 199.031 16.674 199.031 17.374C199.031 17.4767 199.026 17.584 199.017 17.696C199.008 17.808 198.994 17.9247 198.975 18.046H193.529C193.632 18.4753 193.837 18.8253 194.145 19.096C194.462 19.3667 194.859 19.502 195.335 19.502C195.746 19.502 196.1 19.4087 196.399 19.222C196.707 19.0353 196.945 18.802 197.113 18.522L198.583 19.628C198.294 20.0853 197.86 20.4587 197.281 20.748C196.702 21.0373 196.054 21.182 195.335 21.182ZM195.307 15.162C194.859 15.162 194.476 15.2973 194.159 15.568C193.842 15.8387 193.632 16.1933 193.529 16.632H197.127C197.024 16.2307 196.81 15.8853 196.483 15.596C196.166 15.3067 195.774 15.162 195.307 15.162ZM202.093 21L199.825 13.72H202.037L202.975 17.85C203.013 18.0273 203.05 18.214 203.087 18.41C203.134 18.5967 203.171 18.7787 203.199 18.956C203.255 18.5827 203.335 18.2093 203.437 17.836L204.501 13.72H206.671L207.805 17.836C207.908 18.2093 207.987 18.5827 208.043 18.956C208.071 18.7787 208.104 18.5967 208.141 18.41C208.188 18.214 208.23 18.0273 208.267 17.85L209.275 13.72H211.333L209.065 21H207.021L205.831 16.856C205.719 16.492 205.635 16.128 205.579 15.764C205.551 15.9413 205.519 16.1233 205.481 16.31C205.444 16.4967 205.402 16.6787 205.355 16.856L204.263 21H202.093Z" fill="black"/>
<path d="M77.107 50.682V54.633C77.107 55.347 77.269 55.872 77.593 56.208C77.917 56.538 78.358 56.703 78.916 56.703C79.468 56.703 79.903 56.538 80.221 56.208C80.539 55.878 80.698 55.353 80.698 54.633V50.682H81.103V54.624C81.103 55.446 80.905 56.058 80.509 56.46C80.113 56.862 79.582 57.063 78.916 57.063C78.25 57.063 77.713 56.862 77.305 56.46C76.903 56.052 76.702 55.44 76.702 54.624V50.682H77.107ZM84.9418 50.682C86.0098 50.682 86.8318 50.961 87.4078 51.519C87.9898 52.077 88.2808 52.854 88.2808 53.85C88.2808 54.846 87.9898 55.62 87.4078 56.172C86.8318 56.724 86.0098 57 84.9418 57H83.1688V50.682H84.9418ZM84.9418 56.658C85.8958 56.658 86.6218 56.412 87.1198 55.92C87.6178 55.422 87.8668 54.732 87.8668 53.85C87.8668 52.962 87.6178 52.269 87.1198 51.771C86.6218 51.273 85.8958 51.024 84.9418 51.024H83.5738V56.658H84.9418ZM93.7177 55.38H90.7207L90.1177 57H89.6767L91.9987 50.826H92.4487L94.7617 57H94.3207L93.7177 55.38ZM93.5917 55.038L92.2237 51.357L90.8467 55.038H93.5917ZM96.8133 50.682V57H96.4083V50.682H96.8133ZM102.753 52.464C102.753 53.022 102.579 53.457 102.231 53.769C101.883 54.075 101.367 54.228 100.683 54.228H99.3329V57H98.9279V50.682H100.683C101.379 50.682 101.898 50.844 102.24 51.168C102.582 51.486 102.753 51.918 102.753 52.464ZM100.683 53.868C101.793 53.868 102.348 53.4 102.348 52.464C102.348 52.002 102.216 51.651 101.952 51.411C101.688 51.165 101.265 51.042 100.683 51.042H99.3329V53.868H100.683ZM104.84 50.682V54.633C104.84 55.347 105.002 55.872 105.326 56.208C105.65 56.538 106.091 56.703 106.649 56.703C107.201 56.703 107.636 56.538 107.954 56.208C108.272 55.878 108.431 55.353 108.431 54.633V50.682H108.836V54.624C108.836 55.446 108.638 56.058 108.242 56.46C107.846 56.862 107.315 57.063 106.649 57.063C105.983 57.063 105.446 56.862 105.038 56.46C104.636 56.052 104.435 55.44 104.435 54.624V50.682H104.84ZM114.313 57L112.693 54.309H112.657H111.307V57H110.902V50.682H112.639C113.341 50.682 113.866 50.847 114.214 51.177C114.568 51.507 114.745 51.945 114.745 52.491C114.745 52.977 114.607 53.379 114.331 53.697C114.061 54.009 113.665 54.201 113.143 54.273L114.799 57H114.313ZM111.307 53.967H112.657C113.215 53.967 113.632 53.832 113.908 53.562C114.184 53.292 114.322 52.935 114.322 52.491C114.322 51.525 113.761 51.042 112.639 51.042H111.307V53.967ZM116.847 56.055L116.001 58.359H115.695L116.379 56.055H116.847ZM125.071 57L123.451 54.309H123.415H122.065V57H121.66V50.682H123.397C124.099 50.682 124.624 50.847 124.972 51.177C125.326 51.507 125.503 51.945 125.503 52.491C125.503 52.977 125.365 53.379 125.089 53.697C124.819 54.009 124.423 54.201 123.901 54.273L125.557 57H125.071ZM122.065 53.967H123.415C123.973 53.967 124.39 53.832 124.666 53.562C124.942 53.292 125.08 52.935 125.08 52.491C125.08 51.525 124.519 51.042 123.397 51.042H122.065V53.967ZM130.917 55.38H127.92L127.317 57H126.876L129.198 50.826H129.648L131.961 57H131.52L130.917 55.38ZM130.791 55.038L129.423 51.357L128.046 55.038H130.791ZM136.244 50.682V55.587C136.244 56.025 136.109 56.382 135.839 56.658C135.569 56.928 135.203 57.063 134.741 57.063C134.255 57.063 133.871 56.916 133.589 56.622C133.313 56.322 133.175 55.911 133.175 55.389H133.58C133.58 55.773 133.673 56.088 133.859 56.334C134.045 56.58 134.339 56.703 134.741 56.703C135.125 56.703 135.401 56.595 135.569 56.379C135.743 56.157 135.83 55.893 135.83 55.587V50.682H136.244ZM143.347 58.674C142.795 58.11 142.354 57.396 142.024 56.532C141.694 55.662 141.529 54.705 141.529 53.661C141.529 52.611 141.697 51.645 142.033 50.763C142.369 49.881 142.822 49.158 143.392 48.594H143.824V48.639C143.206 49.263 142.735 50.013 142.411 50.889C142.087 51.759 141.925 52.683 141.925 53.661C141.925 54.633 142.084 55.548 142.402 56.406C142.72 57.264 143.179 58.005 143.779 58.629V58.674H143.347ZM146.019 50.682V57H145.614V50.682H146.019ZM152.651 57H152.246L148.538 51.348V57H148.133V50.691H148.538L152.246 56.325V50.691H152.651V57ZM156.539 50.682C157.607 50.682 158.429 50.961 159.005 51.519C159.587 52.077 159.878 52.854 159.878 53.85C159.878 54.846 159.587 55.62 159.005 56.172C158.429 56.724 157.607 57 156.539 57H154.766V50.682H156.539ZM156.539 56.658C157.493 56.658 158.219 56.412 158.717 55.92C159.215 55.422 159.464 54.732 159.464 53.85C159.464 52.962 159.215 52.269 158.717 51.771C158.219 51.273 157.493 51.024 156.539 51.024H155.171V56.658H156.539ZM162.138 50.682V57H161.733V50.682H162.138ZM167.835 55.38H164.838L164.235 57H163.794L166.116 50.826H166.566L168.879 57H168.438L167.835 55.38ZM167.709 55.038L166.341 51.357L164.964 55.038H167.709ZM170.255 58.674V58.629C170.855 58.005 171.314 57.264 171.632 56.406C171.95 55.548 172.109 54.633 172.109 53.661C172.109 52.683 171.947 51.759 171.623 50.889C171.299 50.013 170.828 49.263 170.21 48.639V48.594H170.642C171.212 49.158 171.665 49.881 172.001 50.763C172.337 51.645 172.505 52.611 172.505 53.661C172.505 54.705 172.34 55.662 172.01 56.532C171.68 57.396 171.239 58.11 170.687 58.674H170.255Z" fill="#949494"/>
<path d="M114.058 29.8382C114.245 29.4826 114.755 29.4826 114.942 29.8382L116.372 32.5481C116.444 32.6852 116.576 32.781 116.729 32.8074L119.748 33.3298C120.144 33.3984 120.302 33.8827 120.021 34.171L117.886 36.3682C117.778 36.4794 117.727 36.6344 117.75 36.7878L118.186 39.8206C118.243 40.2185 117.831 40.5178 117.47 40.3404L114.721 38.9885C114.581 38.9201 114.419 38.9201 114.279 38.9885L111.53 40.3404C111.169 40.5178 110.757 40.2185 110.814 39.8206L111.25 36.7878C111.273 36.6344 111.222 36.4794 111.114 36.3682L108.979 34.171C108.698 33.8827 108.856 33.3984 109.252 33.3298L112.271 32.8074C112.424 32.781 112.556 32.6852 112.628 32.5481L114.058 29.8382Z" fill="#FFDD00"/>
<path d="M132.058 29.8382C132.245 29.4826 132.755 29.4826 132.942 29.8382L134.372 32.5481C134.444 32.6852 134.576 32.781 134.729 32.8074L137.748 33.3298C138.144 33.3984 138.302 33.8827 138.021 34.171L135.886 36.3682C135.778 36.4794 135.727 36.6344 135.75 36.7878L136.186 39.8206C136.243 40.2185 135.831 40.5178 135.47 40.3404L132.721 38.9885C132.581 38.9201 132.419 38.9201 132.279 38.9885L129.53 40.3404C129.169 40.5178 128.757 40.2185 128.814 39.8206L129.25 36.7878C129.273 36.6344 129.222 36.4794 129.114 36.3682L126.979 34.171C126.698 33.8827 126.856 33.3984 127.252 33.3298L130.271 32.8074C130.424 32.781 130.556 32.6852 130.628 32.5481L132.058 29.8382Z" fill="#FFDD00"/>
<path d="M150.058 29.8382C150.245 29.4826 150.755 29.4826 150.942 29.8382L152.372 32.5481C152.444 32.6852 152.576 32.781 152.729 32.8074L155.748 33.3298C156.144 33.3984 156.302 33.8827 156.021 34.171L153.886 36.3682C153.778 36.4794 153.727 36.6344 153.75 36.7878L154.186 39.8206C154.243 40.2185 153.831 40.5178 153.47 40.3404L150.721 38.9885C150.581 38.9201 150.419 38.9201 150.279 38.9885L147.53 40.3404C147.169 40.5178 146.757 40.2185 146.814 39.8206L147.25 36.7878C147.273 36.6344 147.222 36.4794 147.114 36.3682L144.979 34.171C144.698 33.8827 144.856 33.3984 145.252 33.3298L148.271 32.8074C148.424 32.781 148.556 32.6852 148.628 32.5481L150.058 29.8382Z" fill="#FFDD00"/>
<path d="M168.058 29.8382C168.245 29.4826 168.755 29.4826 168.942 29.8382L170.372 32.5481C170.444 32.6852 170.576 32.781 170.729 32.8074L173.748 33.3298C174.144 33.3984 174.302 33.8827 174.021 34.171L171.886 36.3682C171.778 36.4794 171.727 36.6344 171.75 36.7878L172.186 39.8206C172.243 40.2185 171.831 40.5178 171.47 40.3404L168.721 38.9885C168.581 38.9201 168.419 38.9201 168.279 38.9885L165.53 40.3404C165.169 40.5178 164.757 40.2185 164.814 39.8206L165.25 36.7878C165.273 36.6344 165.222 36.4794 165.114 36.3682L162.979 34.171C162.698 33.8827 162.856 33.3984 163.252 33.3298L166.271 32.8074C166.424 32.781 166.556 32.6852 166.628 32.5481L168.058 29.8382Z" fill="#FFDD00"/>
<path d="M186.058 29.8382C186.245 29.4826 186.755 29.4826 186.942 29.8382L188.372 32.5481C188.444 32.6852 188.576 32.781 188.729 32.8074L191.748 33.3298C192.144 33.3984 192.302 33.8827 192.021 34.171L189.886 36.3682C189.778 36.4794 189.727 36.6344 189.75 36.7878L190.186 39.8206C190.243 40.2185 189.831 40.5178 189.47 40.3404L186.721 38.9885C186.581 38.9201 186.419 38.9201 186.279 38.9885L183.53 40.3404C183.169 40.5178 182.757 40.2185 182.814 39.8206L183.25 36.7878C183.273 36.6344 183.222 36.4794 183.114 36.3682L180.979 34.171C180.698 33.8827 180.856 33.3984 181.252 33.3298L184.271 32.8074C184.424 32.781 184.556 32.6852 184.628 32.5481L186.058 29.8382Z" fill="#BBBBBB"/>
<path d="M76.644 37.872V36.668L81.348 29.92H83.28V36.486H84.582V37.872H83.28V40H81.712V37.872H76.644ZM81.782 31.544L78.478 36.486H81.782V31.544ZM87.7385 40.098C87.4491 40.098 87.2065 40 87.0105 39.804C86.8145 39.608 86.7165 39.3653 86.7165 39.076C86.7165 38.7867 86.8145 38.544 87.0105 38.348C87.2065 38.152 87.4491 38.054 87.7385 38.054C88.0185 38.054 88.2565 38.152 88.4525 38.348C88.6485 38.544 88.7465 38.7867 88.7465 39.076C88.7465 39.3653 88.6485 39.608 88.4525 39.804C88.2565 40 88.0185 40.098 87.7385 40.098ZM97.8214 31.166H93.1314V33.952C93.3274 33.6907 93.6167 33.4713 93.9994 33.294C94.3914 33.1167 94.8067 33.028 95.2454 33.028C96.0294 33.028 96.6641 33.196 97.1494 33.532C97.6441 33.868 97.9941 34.2927 98.1994 34.806C98.4141 35.3193 98.5214 35.8607 98.5214 36.43C98.5214 37.1207 98.3861 37.7367 98.1154 38.278C97.8541 38.81 97.4574 39.23 96.9254 39.538C96.4027 39.846 95.7587 40 94.9934 40C93.9761 40 93.1594 39.748 92.5434 39.244C91.9274 38.74 91.5587 38.0727 91.4374 37.242H92.9914C93.0941 37.6807 93.3227 38.0307 93.6774 38.292C94.0321 38.544 94.4754 38.67 95.0074 38.67C95.6701 38.67 96.1647 38.4693 96.4914 38.068C96.8274 37.6667 96.9954 37.1347 96.9954 36.472C96.9954 35.8 96.8274 35.2867 96.4914 34.932C96.1554 34.568 95.6607 34.386 95.0074 34.386C94.5501 34.386 94.1627 34.5027 93.8454 34.736C93.5374 34.96 93.3134 35.268 93.1734 35.66H91.6614V29.766H97.8214V31.166Z" fill="black"/>
<path d="M206.144 42.604C205.267 41.736 204.576 40.6253 204.072 39.272C203.568 37.9093 203.316 36.43 203.316 34.834C203.316 33.2193 203.577 31.7213 204.1 30.34C204.623 28.9587 205.355 27.82 206.298 26.924H207.32V27.022C206.321 28.002 205.561 29.1733 205.038 30.536C204.525 31.8987 204.268 33.3313 204.268 34.834C204.268 36.318 204.515 37.7227 205.01 39.048C205.505 40.3733 206.228 41.526 207.18 42.506V42.604H206.144ZM209.293 30.844V29.962H211.673V40H210.679V30.844H209.293ZM215.943 38.376L214.487 42.044H213.815L214.851 38.376H215.943ZM224.565 30.802H219.441V34.386C219.674 34.0593 220.015 33.7933 220.463 33.588C220.911 33.3733 221.396 33.266 221.919 33.266C222.684 33.266 223.309 33.4247 223.795 33.742C224.28 34.05 224.63 34.456 224.845 34.96C225.059 35.4547 225.167 35.9867 225.167 36.556C225.167 37.2093 225.041 37.802 224.789 38.334C224.546 38.8567 224.168 39.272 223.655 39.58C223.151 39.888 222.521 40.042 221.765 40.042C220.803 40.042 220.024 39.7947 219.427 39.3C218.829 38.796 218.465 38.1193 218.335 37.27H219.301C219.422 37.886 219.702 38.362 220.141 38.698C220.579 39.034 221.121 39.202 221.765 39.202C222.577 39.202 223.188 38.964 223.599 38.488C224.019 38.0027 224.229 37.3633 224.229 36.57C224.229 35.7953 224.019 35.1933 223.599 34.764C223.179 34.3253 222.577 34.106 221.793 34.106C221.251 34.106 220.775 34.232 220.365 34.484C219.954 34.736 219.651 35.0767 219.455 35.506H218.531V29.948H224.565V30.802ZM227.857 34.89C227.857 33.2847 228.105 32.0387 228.599 31.152C229.094 30.2653 229.981 29.822 231.259 29.822C232.538 29.822 233.425 30.2653 233.919 31.152C234.414 32.0387 234.661 33.2847 234.661 34.89C234.661 36.5233 234.414 37.788 233.919 38.684C233.425 39.58 232.538 40.028 231.259 40.028C229.971 40.028 229.08 39.58 228.585 38.684C228.1 37.788 227.857 36.5233 227.857 34.89ZM233.695 34.89C233.695 34.022 233.635 33.2893 233.513 32.692C233.392 32.0947 233.154 31.614 232.799 31.25C232.445 30.886 231.931 30.704 231.259 30.704C230.587 30.704 230.074 30.886 229.719 31.25C229.365 31.614 229.127 32.0947 229.005 32.692C228.884 33.2893 228.823 34.022 228.823 34.89C228.823 35.786 228.884 36.5373 229.005 37.144C229.127 37.7413 229.365 38.222 229.719 38.586C230.074 38.95 230.587 39.132 231.259 39.132C231.931 39.132 232.445 38.95 232.799 38.586C233.154 38.222 233.392 37.7413 233.513 37.144C233.635 36.5373 233.695 35.786 233.695 34.89ZM237.422 32.524C237.488 31.6747 237.814 31.0073 238.402 30.522C239 30.0273 239.77 29.78 240.712 29.78C241.338 29.78 241.874 29.892 242.322 30.116C242.77 30.34 243.106 30.648 243.33 31.04C243.564 31.4227 243.68 31.8567 243.68 32.342C243.68 32.93 243.508 33.4387 243.162 33.868C242.817 34.2973 242.327 34.5633 241.692 34.666V34.736C242.355 34.8667 242.882 35.156 243.274 35.604C243.666 36.0427 243.862 36.6213 243.862 37.34C243.862 38.1427 243.592 38.8007 243.05 39.314C242.518 39.818 241.744 40.07 240.726 40.07C239.756 40.07 238.958 39.818 238.332 39.314C237.707 38.8007 237.348 38.0773 237.254 37.144H238.206C238.29 37.7693 238.552 38.278 238.99 38.67C239.429 39.0527 240.008 39.244 240.726 39.244C241.436 39.244 241.977 39.0573 242.35 38.684C242.733 38.3107 242.924 37.8347 242.924 37.256C242.924 35.8373 241.902 35.128 239.858 35.128H239.55V34.302H239.872C241.776 34.302 242.728 33.6813 242.728 32.44C242.728 31.8987 242.551 31.4647 242.196 31.138C241.842 30.802 241.338 30.634 240.684 30.634C240.05 30.634 239.522 30.802 239.102 31.138C238.692 31.4647 238.449 31.9267 238.374 32.524H237.422ZM246.424 42.604V42.506C247.376 41.526 248.099 40.3733 248.594 39.048C249.088 37.7227 249.336 36.318 249.336 34.834C249.336 33.3313 249.074 31.8987 248.552 30.536C248.038 29.1733 247.282 28.002 246.284 27.022V26.924H247.306C248.248 27.82 248.981 28.9587 249.504 30.34C250.026 31.7213 250.288 33.2193 250.288 34.834C250.288 36.43 250.036 37.9093 249.532 39.272C249.028 40.6253 248.337 41.736 247.46 42.604H246.424Z" fill="#BBBBBB"/>
</svg>
