<svg width="373" height="175" viewBox="0 0 373 175" fill="none" xmlns="http://www.w3.org/2000/svg">
<path d="M221.33 142.713C221.33 150.076 227.299 156.046 234.663 156.046C242.027 156.046 247.996 150.076 247.996 142.713C247.996 135.349 242.027 129.379 234.663 129.379C227.299 129.379 221.33 135.349 221.33 142.713ZM372.285 13.9125L346.991 -2.57492e-05L347.589 28.8613L372.285 13.9125ZM234.663 142.713V145.213C236.374 145.213 238.043 145.183 239.672 145.123L239.581 142.625L239.49 140.127C237.924 140.184 236.316 140.213 234.663 140.213V142.713ZM249.113 141.888L249.416 144.369C252.845 143.95 256.065 143.38 259.092 142.667L258.519 140.233L257.946 137.8C255.109 138.468 252.07 139.008 248.81 139.406L249.113 141.888ZM267.61 137.434L268.517 139.764C271.786 138.491 274.774 137.014 277.51 135.353L276.213 133.216L274.916 131.078C272.437 132.583 269.711 133.933 266.702 135.105L267.61 137.434ZM283.856 127.503L285.542 129.35C288.064 127.048 290.288 124.553 292.266 121.905L290.263 120.409L288.26 118.913C286.458 121.325 284.444 123.582 282.171 125.657L283.856 127.503ZM295.333 112.3L297.548 113.461C299.069 110.559 300.395 107.545 301.575 104.46L299.24 103.567L296.906 102.673C295.783 105.608 294.535 108.439 293.119 111.14L295.333 112.3ZM302.285 94.487L304.682 95.1966C305.596 92.1088 306.423 88.9783 307.206 85.8421L304.78 85.2372L302.354 84.6323C301.583 87.7261 300.775 90.7819 299.888 93.7775L302.285 94.487ZM307.015 75.9207L309.449 76.4945C310.185 73.3737 310.917 70.2809 311.691 67.2288L309.268 66.614L306.845 65.9992C306.059 69.0975 305.317 72.2287 304.582 75.347L307.015 75.9207ZM311.827 57.3754L314.217 58.1089C315.15 55.0697 316.169 52.1208 317.318 49.2883L315.001 48.3484L312.685 47.4084C311.469 50.4053 310.403 53.4964 309.437 56.6418L311.827 57.3754ZM319.149 39.7222L321.32 40.9625C322.844 38.2947 324.556 35.791 326.505 33.4794L324.593 31.8681L322.681 30.2569C320.516 32.8263 318.634 35.5838 316.978 38.4819L319.149 39.7222ZM331.481 25.2466L333.011 27.2238C335.296 25.4554 337.84 23.8651 340.688 22.4822L339.596 20.2333L338.505 17.9843C335.35 19.5157 332.512 21.2875 329.951 23.2694L331.481 25.2466ZM348.553 16.8454L349.239 19.2495C351.997 18.4628 354.983 17.8254 358.22 17.3556L357.861 14.8815L357.502 12.4074C354.061 12.9068 350.856 13.5888 347.868 14.4414L348.553 16.8454Z" fill="black"/>
<rect y="114.041" width="234.663" height="60.8712" rx="30.4356" fill="url(#paint0_linear_40_30)"/>
<path d="M56.9373 154.756C55.4813 154.756 54.128 154.495 52.8773 153.972C51.6453 153.449 50.5626 152.721 49.6293 151.788C48.7146 150.855 47.996 149.781 47.4733 148.568C46.9693 147.336 46.7173 146.02 46.7173 144.62C46.7173 143.22 46.96 141.904 47.4453 140.672C47.9493 139.44 48.6493 138.357 49.5453 137.424C50.46 136.491 51.5426 135.763 52.7933 135.24C54.044 134.699 55.4253 134.428 56.9373 134.428C58.5426 134.428 59.9146 134.68 61.0533 135.184C62.2106 135.688 63.228 136.463 64.1053 137.508L61.3333 139.916C60.1573 138.684 58.692 138.068 56.9373 138.068C55.6866 138.068 54.5946 138.367 53.6613 138.964C52.7466 139.561 52.0373 140.355 51.5333 141.344C51.0293 142.333 50.7773 143.425 50.7773 144.62C50.7773 145.815 51.0293 146.907 51.5333 147.896C52.0373 148.867 52.756 149.651 53.6893 150.248C54.6226 150.827 55.7333 151.116 57.0213 151.116C57.9733 151.116 58.8133 150.957 59.5413 150.64C60.2693 150.323 60.9226 149.847 61.5013 149.212L64.3573 151.648C63.6106 152.544 62.612 153.291 61.3613 153.888C60.1293 154.467 58.6546 154.756 56.9373 154.756ZM67.6363 154.392V133.952H71.4164V154.392H67.6363ZM77.488 138.628C76.8533 138.628 76.312 138.413 75.864 137.984C75.4346 137.536 75.22 137.004 75.22 136.388C75.22 135.791 75.4346 135.277 75.864 134.848C76.312 134.4 76.8533 134.176 77.488 134.176C78.1413 134.176 78.6826 134.4 79.112 134.848C79.5413 135.277 79.756 135.791 79.756 136.388C79.756 137.023 79.5413 137.555 79.112 137.984C78.6826 138.413 78.1413 138.628 77.488 138.628ZM75.612 154.392V139.832H79.392V154.392H75.612ZM90.5316 154.756C89.4863 154.756 88.5063 154.56 87.5916 154.168C86.6956 153.776 85.9023 153.235 85.2116 152.544C84.5209 151.835 83.9796 151.023 83.5876 150.108C83.2143 149.175 83.0276 148.176 83.0276 147.112C83.0276 145.693 83.3543 144.415 84.0076 143.276C84.6796 142.119 85.5943 141.195 86.7516 140.504C87.9276 139.813 89.2529 139.468 90.7276 139.468C92.0529 139.449 93.2383 139.683 94.2836 140.168C95.3289 140.653 96.1596 141.325 96.7756 142.184L93.8636 144.564C93.5276 144.06 93.0889 143.659 92.5476 143.36C92.0249 143.061 91.4369 142.912 90.7836 142.912C89.9809 142.912 89.2809 143.108 88.6836 143.5C88.0863 143.873 87.6196 144.377 87.2836 145.012C86.9663 145.647 86.8076 146.347 86.8076 147.112C86.8076 147.859 86.9756 148.559 87.3116 149.212C87.6663 149.847 88.1423 150.36 88.7396 150.752C89.3556 151.125 90.0649 151.312 90.8676 151.312C91.5956 151.312 92.2116 151.153 92.7156 150.836C93.2196 150.5 93.6583 150.08 94.0316 149.576L96.7756 151.956C96.0849 152.833 95.2263 153.524 94.1996 154.028C93.1916 154.513 91.9689 154.756 90.5316 154.756ZM100.231 154.392V133.952H104.011V145.712L109.471 139.832H114.847L107.987 146.608L114.875 154.392H109.863L104.011 147.476V154.392H100.231ZM124.638 154.392V134.792H128.558V142.688H136.678V134.792H140.598V154.392H136.678V146.216H128.558V154.392H124.638ZM152.048 154.756C150.555 154.756 149.239 154.411 148.1 153.72C146.961 153.029 146.075 152.115 145.44 150.976C144.824 149.819 144.516 148.54 144.516 147.14C144.516 145.74 144.843 144.461 145.496 143.304C146.149 142.128 147.036 141.195 148.156 140.504C149.295 139.813 150.592 139.468 152.048 139.468C153.504 139.468 154.783 139.813 155.884 140.504C157.004 141.195 157.872 142.128 158.488 143.304C159.123 144.461 159.44 145.74 159.44 147.14C159.44 147.345 159.431 147.56 159.412 147.784C159.393 148.008 159.365 148.241 159.328 148.484H148.436C148.641 149.343 149.052 150.043 149.668 150.584C150.303 151.125 151.096 151.396 152.048 151.396C152.869 151.396 153.579 151.209 154.176 150.836C154.792 150.463 155.268 149.996 155.604 149.436L158.544 151.648C157.965 152.563 157.097 153.309 155.94 153.888C154.783 154.467 153.485 154.756 152.048 154.756ZM151.992 142.716C151.096 142.716 150.331 142.987 149.696 143.528C149.061 144.069 148.641 144.779 148.436 145.656H155.632C155.427 144.853 154.997 144.163 154.344 143.584C153.709 143.005 152.925 142.716 151.992 142.716ZM163.059 154.392V139.832H166.727V142.604C166.97 141.559 167.465 140.765 168.211 140.224C168.958 139.664 169.966 139.421 171.235 139.496V143.052H170.703C169.621 143.052 168.706 143.397 167.959 144.088C167.213 144.779 166.839 145.731 166.839 146.944V154.392H163.059ZM180.714 154.756C179.221 154.756 177.905 154.411 176.766 153.72C175.627 153.029 174.741 152.115 174.106 150.976C173.49 149.819 173.182 148.54 173.182 147.14C173.182 145.74 173.509 144.461 174.162 143.304C174.815 142.128 175.702 141.195 176.822 140.504C177.961 139.813 179.258 139.468 180.714 139.468C182.17 139.468 183.449 139.813 184.55 140.504C185.67 141.195 186.538 142.128 187.154 143.304C187.789 144.461 188.106 145.74 188.106 147.14C188.106 147.345 188.097 147.56 188.078 147.784C188.059 148.008 188.031 148.241 187.994 148.484H177.102C177.307 149.343 177.718 150.043 178.334 150.584C178.969 151.125 179.762 151.396 180.714 151.396C181.535 151.396 182.245 151.209 182.842 150.836C183.458 150.463 183.934 149.996 184.27 149.436L187.21 151.648C186.631 152.563 185.763 153.309 184.606 153.888C183.449 154.467 182.151 154.756 180.714 154.756ZM180.658 142.716C179.762 142.716 178.997 142.987 178.362 143.528C177.727 144.069 177.307 144.779 177.102 145.656H184.298C184.093 144.853 183.663 144.163 183.01 143.584C182.375 143.005 181.591 142.716 180.658 142.716Z" fill="black"/>
<defs>
<linearGradient id="paint0_linear_40_30" x1="0" y1="144.477" x2="234.663" y2="144.477" gradientUnits="userSpaceOnUse">
<stop stop-color="#FFDE67"/>
<stop offset="1" stop-color="#FE7E07"/>
</linearGradient>
</defs>
</svg>
