<svg width="1828" height="61" viewBox="0 0 1828 61" fill="none" xmlns="http://www.w3.org/2000/svg">
<path d="M10.7569 19.536C13.1249 19.536 15.1942 20.0053 16.9649 20.944C18.7355 21.8827 20.1009 23.2053 21.0609 24.912C22.0422 26.5973 22.5329 28.5493 22.5329 30.768C22.5329 32.9653 22.0422 34.9173 21.0609 36.624C20.1009 38.3307 18.7249 39.6533 16.9329 40.592C15.1622 41.5307 13.1035 42 10.7569 42H2.34087V19.536H10.7569ZM10.4049 37.264C12.4742 37.264 14.0849 36.6987 15.2369 35.568C16.3889 34.4373 16.9649 32.8373 16.9649 30.768C16.9649 28.6987 16.3889 27.088 15.2369 25.936C14.0849 24.784 12.4742 24.208 10.4049 24.208H7.81287V37.264H10.4049ZM30.5829 22.288C29.6229 22.288 28.8335 22.0107 28.2149 21.456C27.6175 20.88 27.3189 20.176 27.3189 19.344C27.3189 18.4907 27.6175 17.7867 28.2149 17.232C28.8335 16.656 29.6229 16.368 30.5829 16.368C31.5215 16.368 32.2895 16.656 32.8869 17.232C33.5055 17.7867 33.8149 18.4907 33.8149 19.344C33.8149 20.176 33.5055 20.88 32.8869 21.456C32.2895 22.0107 31.5215 22.288 30.5829 22.288ZM33.3029 24.144V42H27.8309V24.144H33.3029ZM46.2924 23.888C47.551 23.888 48.6497 24.144 49.5884 24.656C50.5484 25.168 51.2844 25.84 51.7964 26.672V24.144H57.2684V41.968C57.2684 43.6107 56.9377 45.0933 56.2764 46.416C55.6364 47.76 54.6444 48.8267 53.3004 49.616C51.9777 50.4053 50.3244 50.8 48.3404 50.8C45.695 50.8 43.551 50.1707 41.9084 48.912C40.2657 47.6747 39.327 45.9893 39.0924 43.856H44.5004C44.671 44.5387 45.0764 45.072 45.7164 45.456C46.3564 45.8613 47.1457 46.064 48.0844 46.064C49.215 46.064 50.111 45.7333 50.7724 45.072C51.455 44.432 51.7964 43.3973 51.7964 41.968V39.44C51.263 40.272 50.527 40.9547 49.5884 41.488C48.6497 42 47.551 42.256 46.2924 42.256C44.8204 42.256 43.487 41.8827 42.2924 41.136C41.0977 40.368 40.1484 39.2907 39.4444 37.904C38.7617 36.496 38.4204 34.8747 38.4204 33.04C38.4204 31.2053 38.7617 29.5947 39.4444 28.208C40.1484 26.8213 41.0977 25.7547 42.2924 25.008C43.487 24.2613 44.8204 23.888 46.2924 23.888ZM51.7964 33.072C51.7964 31.7067 51.4124 30.6293 50.6444 29.84C49.8977 29.0507 48.9804 28.656 47.8924 28.656C46.8044 28.656 45.8764 29.0507 45.1084 29.84C44.3617 30.608 43.9884 31.6747 43.9884 33.04C43.9884 34.4053 44.3617 35.4933 45.1084 36.304C45.8764 37.0933 46.8044 37.488 47.8924 37.488C48.9804 37.488 49.8977 37.0933 50.6444 36.304C51.4124 35.5147 51.7964 34.4373 51.7964 33.072ZM66.2191 22.288C65.2591 22.288 64.4698 22.0107 63.8511 21.456C63.2538 20.88 62.9551 20.176 62.9551 19.344C62.9551 18.4907 63.2538 17.7867 63.8511 17.232C64.4698 16.656 65.2591 16.368 66.2191 16.368C67.1578 16.368 67.9258 16.656 68.5231 17.232C69.1418 17.7867 69.4511 18.4907 69.4511 19.344C69.4511 20.176 69.1418 20.88 68.5231 21.456C67.9258 22.0107 67.1578 22.288 66.2191 22.288ZM68.9391 24.144V42H63.4671V24.144H68.9391ZM74.0246 23.728V18.64H82.8886V42H77.1926V23.728H74.0246ZM92.7119 29.456C90.7065 28.3893 89.7039 26.7147 89.7039 24.432C89.7039 23.28 90.0025 22.2347 90.5999 21.296C91.1972 20.336 92.1039 19.5787 93.3199 19.024C94.5359 18.448 96.0292 18.16 97.7999 18.16C99.5705 18.16 101.053 18.448 102.248 19.024C103.464 19.5787 104.371 20.336 104.968 21.296C105.565 22.2347 105.864 23.28 105.864 24.432C105.864 25.584 105.587 26.5867 105.032 27.44C104.499 28.2933 103.773 28.9653 102.856 29.456C104.008 30.0107 104.893 30.7787 105.512 31.76C106.131 32.72 106.44 33.8507 106.44 35.152C106.44 36.6667 106.056 37.9787 105.288 39.088C104.52 40.176 103.475 41.008 102.152 41.584C100.851 42.16 99.3999 42.448 97.7999 42.448C96.1999 42.448 94.7385 42.16 93.4159 41.584C92.1145 41.008 91.0799 40.176 90.3119 39.088C89.5439 37.9787 89.1599 36.6667 89.1599 35.152C89.1599 33.8293 89.4692 32.688 90.0879 31.728C90.7065 30.7467 91.5812 29.9893 92.7119 29.456ZM100.552 25.264C100.552 24.3893 100.296 23.7173 99.7839 23.248C99.2932 22.7573 98.6319 22.512 97.7999 22.512C96.9679 22.512 96.2959 22.7573 95.7839 23.248C95.2932 23.7387 95.0479 24.4213 95.0479 25.296C95.0479 26.128 95.3039 26.7893 95.8159 27.28C96.3279 27.7493 96.9892 27.984 97.7999 27.984C98.6105 27.984 99.2719 27.7387 99.7839 27.248C100.296 26.7573 100.552 26.096 100.552 25.264ZM97.7999 31.824C96.7972 31.824 95.9865 32.1013 95.3679 32.656C94.7492 33.1893 94.4399 33.936 94.4399 34.896C94.4399 35.792 94.7385 36.528 95.3359 37.104C95.9545 37.68 96.7759 37.968 97.7999 37.968C98.8239 37.968 99.6239 37.68 100.2 37.104C100.797 36.528 101.096 35.792 101.096 34.896C101.096 33.9573 100.787 33.2107 100.168 32.656C99.5705 32.1013 98.7812 31.824 97.7999 31.824Z" fill="#2E2E2E"/>
<path d="M129.555 42.224C127.912 42.224 126.44 41.9573 125.139 41.424C123.838 40.8907 122.792 40.1013 122.003 39.056C121.235 38.0107 120.83 36.752 120.787 35.28H126.611C126.696 36.112 126.984 36.752 127.475 37.2C127.966 37.6267 128.606 37.84 129.395 37.84C130.206 37.84 130.846 37.6587 131.315 37.296C131.784 36.912 132.019 36.3893 132.019 35.728C132.019 35.1733 131.827 34.7147 131.443 34.352C131.08 33.9893 130.622 33.6907 130.067 33.456C129.534 33.2213 128.766 32.9547 127.763 32.656C126.312 32.208 125.128 31.76 124.211 31.312C123.294 30.864 122.504 30.2027 121.843 29.328C121.182 28.4533 120.851 27.312 120.851 25.904C120.851 23.8133 121.608 22.1813 123.123 21.008C124.638 19.8133 126.611 19.216 129.043 19.216C131.518 19.216 133.512 19.8133 135.027 21.008C136.542 22.1813 137.352 23.824 137.459 25.936H131.539C131.496 25.2107 131.23 24.6453 130.739 24.24C130.248 23.8133 129.619 23.6 128.851 23.6C128.19 23.6 127.656 23.7813 127.251 24.144C126.846 24.4853 126.643 24.9867 126.643 25.648C126.643 26.3733 126.984 26.9387 127.667 27.344C128.35 27.7493 129.416 28.1867 130.867 28.656C132.318 29.1467 133.491 29.616 134.387 30.064C135.304 30.512 136.094 31.1627 136.755 32.016C137.416 32.8693 137.747 33.968 137.747 35.312C137.747 36.592 137.416 37.7547 136.755 38.8C136.115 39.8453 135.176 40.6773 133.939 41.296C132.702 41.9147 131.24 42.224 129.555 42.224ZM159.515 19.536V23.92H153.563V42H148.091V23.92H142.139V19.536H159.515ZM169.877 19.536V32.976C169.877 34.32 170.208 35.3547 170.869 36.08C171.53 36.8053 172.501 37.168 173.781 37.168C175.061 37.168 176.042 36.8053 176.725 36.08C177.408 35.3547 177.749 34.32 177.749 32.976V19.536H183.221V32.944C183.221 34.9493 182.794 36.6453 181.941 38.032C181.088 39.4187 179.936 40.464 178.485 41.168C177.056 41.872 175.456 42.224 173.685 42.224C171.914 42.224 170.325 41.8827 168.917 41.2C167.53 40.496 166.432 39.4507 165.621 38.064C164.81 36.656 164.405 34.9493 164.405 32.944V19.536H169.877ZM197.719 19.536C200.087 19.536 202.157 20.0053 203.927 20.944C205.698 21.8827 207.063 23.2053 208.023 24.912C209.005 26.5973 209.495 28.5493 209.495 30.768C209.495 32.9653 209.005 34.9173 208.023 36.624C207.063 38.3307 205.687 39.6533 203.895 40.592C202.125 41.5307 200.066 42 197.719 42H189.303V19.536H197.719ZM197.367 37.264C199.437 37.264 201.047 36.6987 202.199 35.568C203.351 34.4373 203.927 32.8373 203.927 30.768C203.927 28.6987 203.351 27.088 202.199 25.936C201.047 24.784 199.437 24.208 197.367 24.208H194.775V37.264H197.367ZM220.265 19.536V42H214.793V19.536H220.265ZM237.095 42.224C234.983 42.224 233.042 41.7333 231.271 40.752C229.522 39.7707 228.124 38.4053 227.079 36.656C226.055 34.8853 225.543 32.9013 225.543 30.704C225.543 28.5067 226.055 26.5333 227.079 24.784C228.124 23.0347 229.522 21.6693 231.271 20.688C233.042 19.7067 234.983 19.216 237.095 19.216C239.207 19.216 241.138 19.7067 242.887 20.688C244.658 21.6693 246.044 23.0347 247.047 24.784C248.071 26.5333 248.583 28.5067 248.583 30.704C248.583 32.9013 248.071 34.8853 247.047 36.656C246.023 38.4053 244.636 39.7707 242.887 40.752C241.138 41.7333 239.207 42.224 237.095 42.224ZM237.095 37.232C238.887 37.232 240.316 36.6347 241.383 35.44C242.471 34.2453 243.015 32.6667 243.015 30.704C243.015 28.72 242.471 27.1413 241.383 25.968C240.316 24.7733 238.887 24.176 237.095 24.176C235.282 24.176 233.831 24.7627 232.743 25.936C231.676 27.1093 231.143 28.6987 231.143 30.704C231.143 32.688 231.676 34.2773 232.743 35.472C233.831 36.6453 235.282 37.232 237.095 37.232Z" fill="#FFDD00"/>
<path d="M1677.8 37.26C1676.76 37.26 1675.79 37.0733 1674.9 36.7C1674.02 36.3267 1673.25 35.8067 1672.58 35.14C1671.93 34.4733 1671.41 33.7067 1671.04 32.84C1670.68 31.96 1670.5 31.02 1670.5 30.02C1670.5 29.02 1670.67 28.08 1671.02 27.2C1671.38 26.32 1671.88 25.5467 1672.52 24.88C1673.17 24.2133 1673.95 23.6933 1674.84 23.32C1675.73 22.9333 1676.72 22.74 1677.8 22.74C1678.95 22.74 1679.93 22.92 1680.74 23.28C1681.57 23.64 1682.29 24.1933 1682.92 24.94L1680.94 26.66C1680.1 25.78 1679.05 25.34 1677.8 25.34C1676.91 25.34 1676.13 25.5533 1675.46 25.98C1674.81 26.4067 1674.3 26.9733 1673.94 27.68C1673.58 28.3867 1673.4 29.1667 1673.4 30.02C1673.4 30.8733 1673.58 31.6533 1673.94 32.36C1674.3 33.0533 1674.81 33.6133 1675.48 34.04C1676.15 34.4533 1676.94 34.66 1677.86 34.66C1678.54 34.66 1679.14 34.5467 1679.66 34.32C1680.18 34.0933 1680.65 33.7533 1681.06 33.3L1683.1 35.04C1682.57 35.68 1681.85 36.2133 1680.96 36.64C1680.08 37.0533 1679.03 37.26 1677.8 37.26ZM1691.64 37.26C1690.6 37.26 1689.63 37.0733 1688.74 36.7C1687.86 36.3267 1687.09 35.8067 1686.42 35.14C1685.77 34.4733 1685.25 33.7067 1684.88 32.84C1684.52 31.96 1684.34 31.02 1684.34 30.02C1684.34 29.02 1684.52 28.08 1684.88 27.2C1685.25 26.32 1685.77 25.5467 1686.42 24.88C1687.09 24.2133 1687.86 23.6933 1688.74 23.32C1689.63 22.9333 1690.6 22.74 1691.64 22.74C1692.68 22.74 1693.64 22.9333 1694.52 23.32C1695.4 23.6933 1696.17 24.2133 1696.82 24.88C1697.47 25.5467 1697.98 26.32 1698.34 27.2C1698.71 28.08 1698.9 29.02 1698.9 30.02C1698.9 31.02 1698.71 31.96 1698.34 32.84C1697.98 33.7067 1697.47 34.4733 1696.82 35.14C1696.17 35.8067 1695.4 36.3267 1694.52 36.7C1693.64 37.0733 1692.68 37.26 1691.64 37.26ZM1691.64 34.66C1692.55 34.66 1693.32 34.4533 1693.96 34.04C1694.61 33.6133 1695.11 33.0467 1695.46 32.34C1695.82 31.6333 1696 30.86 1696 30.02C1696 29.1667 1695.82 28.3867 1695.46 27.68C1695.11 26.9733 1694.61 26.4067 1693.96 25.98C1693.32 25.5533 1692.55 25.34 1691.64 25.34C1690.73 25.34 1689.95 25.5533 1689.28 25.98C1688.63 26.4067 1688.12 26.9733 1687.76 27.68C1687.41 28.3867 1687.24 29.1667 1687.24 30.02C1687.24 30.86 1687.41 31.6333 1687.76 32.34C1688.12 33.0467 1688.63 33.6133 1689.28 34.04C1689.95 34.4533 1690.73 34.66 1691.64 34.66ZM1701.81 37V23H1703.93L1710.75 31.1C1710.91 31.2867 1711.06 31.48 1711.21 31.68C1711.37 31.8667 1711.52 32.06 1711.67 32.26C1711.63 31.9667 1711.6 31.62 1711.59 31.22C1711.57 30.8067 1711.57 30.3933 1711.57 29.98V23H1714.13V37H1712.31L1705.23 28.58C1705.07 28.3933 1704.91 28.2067 1704.75 28.02C1704.6 27.82 1704.45 27.62 1704.31 27.42C1704.35 27.7133 1704.37 28.0667 1704.39 28.48C1704.4 28.88 1704.41 29.2867 1704.41 29.7V37H1701.81ZM1717.52 37V23H1719.64L1726.46 31.1C1726.62 31.2867 1726.78 31.48 1726.92 31.68C1727.08 31.8667 1727.24 32.06 1727.38 32.26C1727.34 31.9667 1727.32 31.62 1727.3 31.22C1727.29 30.8067 1727.28 30.3933 1727.28 29.98V23H1729.84V37H1728.02L1720.94 28.58C1720.78 28.3933 1720.62 28.2067 1720.46 28.02C1720.32 27.82 1720.17 27.62 1720.02 27.42C1720.06 27.7133 1720.09 28.0667 1720.1 28.48C1720.12 28.88 1720.12 29.2867 1720.12 29.7V37H1717.52ZM1733.24 37V23H1741.44V25.52H1736.04V28.66H1741.34V31.1H1736.04V34.48H1741.48V37H1733.24ZM1751.26 37.26C1750.22 37.26 1749.26 37.0733 1748.36 36.7C1747.48 36.3267 1746.71 35.8067 1746.04 35.14C1745.39 34.4733 1744.88 33.7067 1744.5 32.84C1744.14 31.96 1743.96 31.02 1743.96 30.02C1743.96 29.02 1744.14 28.08 1744.48 27.2C1744.84 26.32 1745.34 25.5467 1745.98 24.88C1746.64 24.2133 1747.41 23.6933 1748.3 23.32C1749.2 22.9333 1750.18 22.74 1751.26 22.74C1752.41 22.74 1753.39 22.92 1754.2 23.28C1755.03 23.64 1755.76 24.1933 1756.38 24.94L1754.4 26.66C1753.56 25.78 1752.52 25.34 1751.26 25.34C1750.37 25.34 1749.59 25.5533 1748.92 25.98C1748.27 26.4067 1747.76 26.9733 1747.4 27.68C1747.04 28.3867 1746.86 29.1667 1746.86 30.02C1746.86 30.8733 1747.04 31.6533 1747.4 32.36C1747.76 33.0533 1748.28 33.6133 1748.94 34.04C1749.61 34.4533 1750.4 34.66 1751.32 34.66C1752 34.66 1752.6 34.5467 1753.12 34.32C1753.64 34.0933 1754.11 33.7533 1754.52 33.3L1756.56 35.04C1756.03 35.68 1755.32 36.2133 1754.42 36.64C1753.54 37.0533 1752.49 37.26 1751.26 37.26ZM1762.33 37V25.52H1758.33V23H1769.13V25.52H1765.13V37H1762.33Z" fill="black"/>
<rect x="513.5" y="1.5" width="793" height="58" rx="29" fill="#F5F5F5" stroke="#E7E7E7" stroke-width="3"/>
<rect x="525" y="11" width="167" height="39" rx="19.5" fill="black"/>
<rect x="1649.5" y="1.5" width="177" height="58" rx="29" stroke="#FFDD00" stroke-width="3"/>
<path d="M1806.5 25.1699C1809.83 27.0944 1809.83 31.9056 1806.5 33.8301L1793.75 41.1913C1790.42 43.1158 1786.25 40.7102 1786.25 36.8612L1786.25 22.1388C1786.25 18.2898 1790.42 15.8842 1793.75 17.8087L1806.5 25.1699Z" fill="#FFDD00"/>
<path d="M1157.55 29.6C1157.55 27.952 1157.91 26.48 1158.63 25.184C1159.35 23.872 1160.33 22.856 1161.58 22.136C1162.83 21.4 1164.22 21.032 1165.76 21.032C1167.63 21.032 1169.23 21.48 1170.56 22.376C1171.9 23.256 1172.88 24.504 1173.49 26.12H1171.52C1171.04 24.984 1170.3 24.096 1169.31 23.456C1168.33 22.816 1167.15 22.496 1165.76 22.496C1164.53 22.496 1163.41 22.784 1162.42 23.36C1161.45 23.936 1160.68 24.768 1160.12 25.856C1159.56 26.928 1159.28 28.176 1159.28 29.6C1159.28 31.024 1159.56 32.272 1160.12 33.344C1160.68 34.416 1161.45 35.24 1162.42 35.816C1163.41 36.392 1164.53 36.68 1165.76 36.68C1167.15 36.68 1168.33 36.368 1169.31 35.744C1170.3 35.104 1171.04 34.224 1171.52 33.104H1173.49C1172.88 34.704 1171.9 35.944 1170.56 36.824C1169.21 37.704 1167.61 38.144 1165.76 38.144C1164.22 38.144 1162.83 37.784 1161.58 37.064C1160.33 36.328 1159.35 35.312 1158.63 34.016C1157.91 32.72 1157.55 31.248 1157.55 29.6ZM1184.25 38.192C1183.02 38.192 1181.91 37.92 1180.91 37.376C1179.94 36.816 1179.16 36.032 1178.59 35.024C1178.03 34 1177.75 32.808 1177.75 31.448C1177.75 30.088 1178.03 28.904 1178.61 27.896C1179.19 26.872 1179.97 26.088 1180.96 25.544C1181.95 24.984 1183.07 24.704 1184.3 24.704C1185.53 24.704 1186.64 24.984 1187.63 25.544C1188.64 26.088 1189.43 26.872 1189.99 27.896C1190.56 28.904 1190.85 30.088 1190.85 31.448C1190.85 32.792 1190.56 33.976 1189.99 35C1189.41 36.024 1188.62 36.816 1187.61 37.376C1186.6 37.92 1185.48 38.192 1184.25 38.192ZM1184.25 36.728C1185.11 36.728 1185.91 36.536 1186.65 36.152C1187.39 35.752 1187.98 35.16 1188.43 34.376C1188.89 33.576 1189.12 32.6 1189.12 31.448C1189.12 30.296 1188.9 29.328 1188.45 28.544C1188 27.744 1187.41 27.152 1186.67 26.768C1185.94 26.368 1185.14 26.168 1184.27 26.168C1183.41 26.168 1182.61 26.368 1181.87 26.768C1181.14 27.152 1180.55 27.744 1180.1 28.544C1179.67 29.328 1179.45 30.296 1179.45 31.448C1179.45 32.6 1179.67 33.576 1180.1 34.376C1180.55 35.16 1181.13 35.752 1181.85 36.152C1182.59 36.536 1183.39 36.728 1184.25 36.728ZM1201.74 24.656C1203.3 24.656 1204.58 25.144 1205.58 26.12C1206.57 27.08 1207.06 28.48 1207.06 30.32V38H1205.41V30.512C1205.41 29.088 1205.05 28 1204.33 27.248C1203.62 26.496 1202.66 26.12 1201.42 26.12C1200.16 26.12 1199.15 26.52 1198.4 27.32C1197.65 28.12 1197.27 29.296 1197.27 30.848V38H1195.59V24.896H1197.27V27.128C1197.69 26.328 1198.29 25.72 1199.07 25.304C1199.86 24.872 1200.74 24.656 1201.74 24.656ZM1214.64 26.312V34.448C1214.64 35.248 1214.8 35.8 1215.1 36.104C1215.4 36.408 1215.94 36.56 1216.71 36.56H1218.24V38H1216.44C1215.26 38 1214.38 37.728 1213.8 37.184C1213.23 36.624 1212.94 35.712 1212.94 34.448V26.312H1211.12V24.896H1212.94V21.608H1214.64V24.896H1218.24V26.312H1214.64ZM1221.93 31.424C1221.93 30.08 1222.19 28.904 1222.72 27.896C1223.26 26.872 1224.01 26.088 1224.95 25.544C1225.91 24.984 1226.99 24.704 1228.19 24.704C1229.44 24.704 1230.51 24.992 1231.41 25.568C1232.32 26.144 1232.97 26.88 1233.37 27.776V24.896H1235.05V38H1233.37V35.096C1232.96 35.992 1232.29 36.736 1231.38 37.328C1230.49 37.904 1229.41 38.192 1228.17 38.192C1226.98 38.192 1225.91 37.912 1224.95 37.352C1224.01 36.792 1223.26 36 1222.72 34.976C1222.19 33.952 1221.93 32.768 1221.93 31.424ZM1233.37 31.448C1233.37 30.392 1233.16 29.464 1232.73 28.664C1232.29 27.864 1231.7 27.248 1230.95 26.816C1230.21 26.384 1229.4 26.168 1228.5 26.168C1227.57 26.168 1226.74 26.376 1226.01 26.792C1225.27 27.208 1224.69 27.816 1224.25 28.616C1223.84 29.4 1223.63 30.336 1223.63 31.424C1223.63 32.496 1223.84 33.44 1224.25 34.256C1224.69 35.056 1225.27 35.672 1226.01 36.104C1226.74 36.52 1227.57 36.728 1228.5 36.728C1229.4 36.728 1230.21 36.512 1230.95 36.08C1231.7 35.648 1232.29 35.032 1232.73 34.232C1233.16 33.432 1233.37 32.504 1233.37 31.448ZM1239.8 31.448C1239.8 30.088 1240.07 28.904 1240.62 27.896C1241.16 26.872 1241.91 26.088 1242.87 25.544C1243.83 24.984 1244.93 24.704 1246.16 24.704C1247.78 24.704 1249.11 25.104 1250.15 25.904C1251.2 26.704 1251.88 27.792 1252.19 29.168H1250.39C1250.16 28.224 1249.67 27.488 1248.92 26.96C1248.19 26.416 1247.27 26.144 1246.16 26.144C1245.28 26.144 1244.49 26.344 1243.79 26.744C1243.08 27.144 1242.52 27.744 1242.11 28.544C1241.71 29.328 1241.51 30.296 1241.51 31.448C1241.51 32.6 1241.71 33.576 1242.11 34.376C1242.52 35.176 1243.08 35.776 1243.79 36.176C1244.49 36.576 1245.28 36.776 1246.16 36.776C1247.27 36.776 1248.19 36.512 1248.92 35.984C1249.67 35.44 1250.16 34.688 1250.39 33.728H1252.19C1251.88 35.072 1251.2 36.152 1250.15 36.968C1249.09 37.784 1247.76 38.192 1246.16 38.192C1244.93 38.192 1243.83 37.92 1242.87 37.376C1241.91 36.816 1241.16 36.032 1240.62 35.024C1240.07 34 1239.8 32.808 1239.8 31.448ZM1259.15 26.312V34.448C1259.15 35.248 1259.3 35.8 1259.61 36.104C1259.91 36.408 1260.45 36.56 1261.22 36.56H1262.75V38H1260.95C1259.77 38 1258.89 37.728 1258.31 37.184C1257.74 36.624 1257.45 35.712 1257.45 34.448V26.312H1255.62V24.896H1257.45V21.608H1259.15V24.896H1262.75V26.312H1259.15Z" fill="#BBBBBB"/>
<path d="M964.187 38.168C963.083 38.168 962.107 37.976 961.259 37.592C960.427 37.208 959.771 36.672 959.291 35.984C958.811 35.296 958.555 34.528 958.523 33.68H960.299C960.379 34.496 960.739 35.216 961.379 35.84C962.019 36.448 962.955 36.752 964.187 36.752C965.323 36.752 966.219 36.464 966.875 35.888C967.547 35.296 967.883 34.552 967.883 33.656C967.883 32.936 967.699 32.36 967.331 31.928C966.963 31.48 966.507 31.152 965.963 30.944C965.419 30.72 964.667 30.48 963.707 30.224C962.587 29.92 961.699 29.624 961.043 29.336C960.387 29.048 959.827 28.6 959.363 27.992C958.899 27.384 958.667 26.56 958.667 25.52C958.667 24.656 958.891 23.888 959.339 23.216C959.787 22.528 960.419 21.992 961.235 21.608C962.051 21.224 962.987 21.032 964.043 21.032C965.595 21.032 966.843 21.416 967.787 22.184C968.747 22.936 969.299 23.912 969.443 25.112H967.619C967.507 24.424 967.131 23.816 966.491 23.288C965.851 22.744 964.987 22.472 963.899 22.472C962.891 22.472 962.051 22.744 961.379 23.288C960.707 23.816 960.371 24.544 960.371 25.472C960.371 26.176 960.555 26.744 960.923 27.176C961.291 27.608 961.747 27.936 962.291 28.16C962.851 28.384 963.603 28.624 964.547 28.88C965.635 29.184 966.515 29.488 967.187 29.792C967.859 30.08 968.427 30.528 968.891 31.136C969.355 31.744 969.587 32.56 969.587 33.584C969.587 34.368 969.379 35.112 968.963 35.816C968.547 36.52 967.931 37.088 967.115 37.52C966.299 37.952 965.323 38.168 964.187 38.168ZM980.249 38.192C979.017 38.192 977.905 37.92 976.913 37.376C975.937 36.816 975.161 36.032 974.585 35.024C974.025 34 973.745 32.808 973.745 31.448C973.745 30.088 974.033 28.904 974.609 27.896C975.185 26.872 975.969 26.088 976.961 25.544C977.953 24.984 979.065 24.704 980.297 24.704C981.529 24.704 982.641 24.984 983.633 25.544C984.641 26.088 985.425 26.872 985.985 27.896C986.561 28.904 986.849 30.088 986.849 31.448C986.849 32.792 986.561 33.976 985.985 35C985.409 36.024 984.617 36.816 983.609 37.376C982.601 37.92 981.481 38.192 980.249 38.192ZM980.249 36.728C981.113 36.728 981.913 36.536 982.649 36.152C983.385 35.752 983.977 35.16 984.425 34.376C984.889 33.576 985.121 32.6 985.121 31.448C985.121 30.296 984.897 29.328 984.449 28.544C984.001 27.744 983.409 27.152 982.673 26.768C981.937 26.368 981.137 26.168 980.273 26.168C979.409 26.168 978.609 26.368 977.873 26.768C977.137 27.152 976.545 27.744 976.097 28.544C975.665 29.328 975.449 30.296 975.449 31.448C975.449 32.6 975.665 33.576 976.097 34.376C976.545 35.16 977.129 35.752 977.849 36.152C978.585 36.536 979.385 36.728 980.249 36.728ZM996.751 26.312H993.703V38H992.023V26.312H990.199V24.896H992.023V23.984C992.023 22.56 992.383 21.512 993.103 20.84C993.839 20.168 995.023 19.832 996.655 19.832V21.272C995.567 21.272 994.799 21.48 994.351 21.896C993.919 22.312 993.703 23.008 993.703 23.984V24.896H996.751V26.312ZM1003.26 26.312V34.448C1003.26 35.248 1003.41 35.8 1003.72 36.104C1004.02 36.408 1004.56 36.56 1005.32 36.56H1006.86V38H1005.06C1003.88 38 1003 37.728 1002.42 37.184C1001.84 36.624 1001.56 35.712 1001.56 34.448V26.312H999.732V24.896H1001.56V21.608H1003.26V24.896H1006.86V26.312H1003.26ZM1028.59 24.896L1024.49 38H1022.81L1019.18 27.008L1015.56 38H1013.85L1009.75 24.896H1011.45L1014.72 36.296L1018.39 24.896H1020.07L1023.69 36.32L1026.93 24.896H1028.59ZM1031.79 31.424C1031.79 30.08 1032.06 28.904 1032.59 27.896C1033.13 26.872 1033.87 26.088 1034.82 25.544C1035.78 24.984 1036.86 24.704 1038.06 24.704C1039.31 24.704 1040.38 24.992 1041.27 25.568C1042.19 26.144 1042.84 26.88 1043.24 27.776V24.896H1044.92V38H1043.24V35.096C1042.83 35.992 1042.16 36.736 1041.25 37.328C1040.35 37.904 1039.28 38.192 1038.03 38.192C1036.85 38.192 1035.78 37.912 1034.82 37.352C1033.87 36.792 1033.13 36 1032.59 34.976C1032.06 33.952 1031.79 32.768 1031.79 31.424ZM1043.24 31.448C1043.24 30.392 1043.03 29.464 1042.59 28.664C1042.16 27.864 1041.57 27.248 1040.82 26.816C1040.08 26.384 1039.27 26.168 1038.37 26.168C1037.44 26.168 1036.61 26.376 1035.87 26.792C1035.14 27.208 1034.55 27.816 1034.12 28.616C1033.71 29.4 1033.5 30.336 1033.5 31.424C1033.5 32.496 1033.71 33.44 1034.12 34.256C1034.55 35.056 1035.14 35.672 1035.87 36.104C1036.61 36.52 1037.44 36.728 1038.37 36.728C1039.27 36.728 1040.08 36.512 1040.82 36.08C1041.57 35.648 1042.16 35.032 1042.59 34.232C1043.03 33.432 1043.24 32.504 1043.24 31.448ZM1052.12 27.224C1052.48 26.408 1053.04 25.776 1053.8 25.328C1054.56 24.88 1055.5 24.656 1056.6 24.656V26.408H1056.15C1054.93 26.408 1053.96 26.736 1053.22 27.392C1052.48 28.048 1052.12 29.144 1052.12 30.68V38H1050.44V24.896H1052.12V27.224ZM1072.67 30.776C1072.67 31.352 1072.65 31.792 1072.62 32.096H1061.75C1061.8 33.088 1062.04 33.936 1062.47 34.64C1062.9 35.344 1063.47 35.88 1064.17 36.248C1064.88 36.6 1065.64 36.776 1066.48 36.776C1067.56 36.776 1068.48 36.512 1069.21 35.984C1069.96 35.456 1070.46 34.744 1070.7 33.848H1072.48C1072.16 35.128 1071.47 36.176 1070.41 36.992C1069.37 37.792 1068.06 38.192 1066.48 38.192C1065.24 38.192 1064.14 37.92 1063.16 37.376C1062.19 36.816 1061.42 36.032 1060.86 35.024C1060.32 34 1060.04 32.808 1060.04 31.448C1060.04 30.088 1060.32 28.896 1060.86 27.872C1061.4 26.848 1062.16 26.064 1063.14 25.52C1064.12 24.976 1065.23 24.704 1066.48 24.704C1067.72 24.704 1068.81 24.976 1069.74 25.52C1070.68 26.064 1071.4 26.8 1071.9 27.728C1072.41 28.64 1072.67 29.656 1072.67 30.776ZM1070.96 30.728C1070.98 29.752 1070.78 28.92 1070.36 28.232C1069.96 27.544 1069.41 27.024 1068.71 26.672C1068 26.32 1067.24 26.144 1066.4 26.144C1065.16 26.144 1064.09 26.544 1063.21 27.344C1062.33 28.144 1061.84 29.272 1061.75 30.728H1070.96Z" fill="#BBBBBB"/>
<path d="M748.144 38.168C747.04 38.168 746.064 37.976 745.216 37.592C744.384 37.208 743.728 36.672 743.248 35.984C742.768 35.296 742.512 34.528 742.48 33.68H744.256C744.336 34.496 744.696 35.216 745.336 35.84C745.976 36.448 746.912 36.752 748.144 36.752C749.28 36.752 750.176 36.464 750.832 35.888C751.504 35.296 751.84 34.552 751.84 33.656C751.84 32.936 751.656 32.36 751.288 31.928C750.92 31.48 750.464 31.152 749.92 30.944C749.376 30.72 748.624 30.48 747.664 30.224C746.544 29.92 745.656 29.624 745 29.336C744.344 29.048 743.784 28.6 743.32 27.992C742.856 27.384 742.624 26.56 742.624 25.52C742.624 24.656 742.848 23.888 743.296 23.216C743.744 22.528 744.376 21.992 745.192 21.608C746.008 21.224 746.944 21.032 748 21.032C749.552 21.032 750.8 21.416 751.744 22.184C752.704 22.936 753.256 23.912 753.4 25.112H751.576C751.464 24.424 751.088 23.816 750.448 23.288C749.808 22.744 748.944 22.472 747.856 22.472C746.848 22.472 746.008 22.744 745.336 23.288C744.664 23.816 744.328 24.544 744.328 25.472C744.328 26.176 744.512 26.744 744.88 27.176C745.248 27.608 745.704 27.936 746.248 28.16C746.808 28.384 747.56 28.624 748.504 28.88C749.592 29.184 750.472 29.488 751.144 29.792C751.816 30.08 752.384 30.528 752.848 31.136C753.312 31.744 753.544 32.56 753.544 33.584C753.544 34.368 753.336 35.112 752.92 35.816C752.504 36.52 751.888 37.088 751.072 37.52C750.256 37.952 749.28 38.168 748.144 38.168ZM764.71 24.656C765.702 24.656 766.59 24.864 767.374 25.28C768.174 25.696 768.798 26.336 769.246 27.2C769.71 28.048 769.942 29.088 769.942 30.32V38H768.286V30.512C768.286 29.088 767.926 28 767.206 27.248C766.502 26.496 765.534 26.12 764.302 26.12C763.038 26.12 762.03 26.52 761.278 27.32C760.526 28.12 760.15 29.296 760.15 30.848V38H758.47V20.24H760.15V27.128C760.566 26.344 761.174 25.736 761.974 25.304C762.79 24.872 763.702 24.656 764.71 24.656ZM781.074 38.192C779.842 38.192 778.73 37.92 777.738 37.376C776.762 36.816 775.986 36.032 775.41 35.024C774.85 34 774.57 32.808 774.57 31.448C774.57 30.088 774.858 28.904 775.434 27.896C776.01 26.872 776.794 26.088 777.786 25.544C778.778 24.984 779.89 24.704 781.122 24.704C782.354 24.704 783.466 24.984 784.458 25.544C785.466 26.088 786.25 26.872 786.81 27.896C787.386 28.904 787.674 30.088 787.674 31.448C787.674 32.792 787.386 33.976 786.81 35C786.234 36.024 785.442 36.816 784.434 37.376C783.426 37.92 782.306 38.192 781.074 38.192ZM781.074 36.728C781.938 36.728 782.738 36.536 783.474 36.152C784.21 35.752 784.802 35.16 785.25 34.376C785.714 33.576 785.946 32.6 785.946 31.448C785.946 30.296 785.722 29.328 785.274 28.544C784.826 27.744 784.234 27.152 783.498 26.768C782.762 26.368 781.962 26.168 781.098 26.168C780.234 26.168 779.434 26.368 778.698 26.768C777.962 27.152 777.37 27.744 776.922 28.544C776.49 29.328 776.274 30.296 776.274 31.448C776.274 32.6 776.49 33.576 776.922 34.376C777.37 35.16 777.954 35.752 778.674 36.152C779.41 36.536 780.21 36.728 781.074 36.728ZM809.696 24.896L805.592 38H803.912L800.288 27.008L796.664 38H794.96L790.856 24.896H792.56L795.824 36.296L799.496 24.896H801.176L804.8 36.32L808.04 24.896H809.696ZM812.898 31.448C812.898 30.088 813.17 28.904 813.714 27.896C814.258 26.872 815.01 26.088 815.97 25.544C816.93 24.984 818.026 24.704 819.258 24.704C820.874 24.704 822.202 25.104 823.242 25.904C824.298 26.704 824.978 27.792 825.282 29.168H823.482C823.258 28.224 822.77 27.488 822.018 26.96C821.282 26.416 820.362 26.144 819.258 26.144C818.378 26.144 817.586 26.344 816.882 26.744C816.178 27.144 815.618 27.744 815.202 28.544C814.802 29.328 814.602 30.296 814.602 31.448C814.602 32.6 814.802 33.576 815.202 34.376C815.618 35.176 816.178 35.776 816.882 36.176C817.586 36.576 818.378 36.776 819.258 36.776C820.362 36.776 821.282 36.512 822.018 35.984C822.77 35.44 823.258 34.688 823.482 33.728H825.282C824.978 35.072 824.298 36.152 823.242 36.968C822.186 37.784 820.858 38.192 819.258 38.192C818.026 38.192 816.93 37.92 815.97 37.376C815.01 36.816 814.258 36.032 813.714 35.024C813.17 34 812.898 32.808 812.898 31.448ZM829.297 31.424C829.297 30.08 829.561 28.904 830.089 27.896C830.633 26.872 831.377 26.088 832.321 25.544C833.281 24.984 834.361 24.704 835.561 24.704C836.809 24.704 837.881 24.992 838.777 25.568C839.689 26.144 840.345 26.88 840.745 27.776V24.896H842.425V38H840.745V35.096C840.329 35.992 839.665 36.736 838.753 37.328C837.857 37.904 836.785 38.192 835.537 38.192C834.353 38.192 833.281 37.912 832.321 37.352C831.377 36.792 830.633 36 830.089 34.976C829.561 33.952 829.297 32.768 829.297 31.424ZM840.745 31.448C840.745 30.392 840.529 29.464 840.097 28.664C839.665 27.864 839.073 27.248 838.321 26.816C837.585 26.384 836.769 26.168 835.873 26.168C834.945 26.168 834.113 26.376 833.377 26.792C832.641 27.208 832.057 27.816 831.625 28.616C831.209 29.4 831.001 30.336 831.001 31.424C831.001 32.496 831.209 33.44 831.625 34.256C832.057 35.056 832.641 35.672 833.377 36.104C834.113 36.52 834.945 36.728 835.873 36.728C836.769 36.728 837.585 36.512 838.321 36.08C839.073 35.648 839.665 35.032 840.097 34.232C840.529 33.432 840.745 32.504 840.745 31.448ZM852.452 38.192C850.948 38.192 849.716 37.848 848.756 37.16C847.812 36.456 847.284 35.504 847.172 34.304H848.9C848.98 35.04 849.324 35.64 849.932 36.104C850.556 36.552 851.388 36.776 852.428 36.776C853.34 36.776 854.052 36.56 854.564 36.128C855.092 35.696 855.356 35.16 855.356 34.52C855.356 34.072 855.212 33.704 854.924 33.416C854.636 33.128 854.268 32.904 853.82 32.744C853.388 32.568 852.796 32.384 852.044 32.192C851.068 31.936 850.276 31.68 849.668 31.424C849.06 31.168 848.54 30.792 848.108 30.296C847.692 29.784 847.484 29.104 847.484 28.256C847.484 27.616 847.676 27.024 848.06 26.48C848.444 25.936 848.988 25.504 849.692 25.184C850.396 24.864 851.196 24.704 852.092 24.704C853.5 24.704 854.636 25.064 855.5 25.784C856.364 26.488 856.828 27.464 856.892 28.712H855.212C855.164 27.944 854.86 27.328 854.3 26.864C853.756 26.384 853.004 26.144 852.044 26.144C851.196 26.144 850.508 26.344 849.98 26.744C849.452 27.144 849.188 27.64 849.188 28.232C849.188 28.744 849.34 29.168 849.644 29.504C849.964 29.824 850.356 30.08 850.82 30.272C851.284 30.448 851.908 30.648 852.692 30.872C853.636 31.128 854.388 31.376 854.948 31.616C855.508 31.856 855.988 32.208 856.388 32.672C856.788 33.136 856.996 33.752 857.012 34.52C857.012 35.224 856.82 35.856 856.436 36.416C856.052 36.96 855.516 37.392 854.828 37.712C854.14 38.032 853.348 38.192 852.452 38.192ZM873.711 30.776C873.711 31.352 873.695 31.792 873.663 32.096H862.791C862.839 33.088 863.079 33.936 863.511 34.64C863.943 35.344 864.511 35.88 865.215 36.248C865.919 36.6 866.687 36.776 867.519 36.776C868.607 36.776 869.519 36.512 870.255 35.984C871.007 35.456 871.503 34.744 871.743 33.848H873.519C873.199 35.128 872.511 36.176 871.455 36.992C870.415 37.792 869.103 38.192 867.519 38.192C866.287 38.192 865.183 37.92 864.207 37.376C863.231 36.816 862.463 36.032 861.903 35.024C861.359 34 861.087 32.808 861.087 31.448C861.087 30.088 861.359 28.896 861.903 27.872C862.447 26.848 863.207 26.064 864.183 25.52C865.159 24.976 866.271 24.704 867.519 24.704C868.767 24.704 869.855 24.976 870.783 25.52C871.727 26.064 872.447 26.8 872.943 27.728C873.455 28.64 873.711 29.656 873.711 30.776ZM872.007 30.728C872.023 29.752 871.823 28.92 871.407 28.232C871.007 27.544 870.455 27.024 869.751 26.672C869.047 26.32 868.279 26.144 867.447 26.144C866.199 26.144 865.135 26.544 864.255 27.344C863.375 28.144 862.887 29.272 862.791 30.728H872.007Z" fill="#BBBBBB"/>
<path d="M577.316 18.76V41H573.668V31.272H563.204V41H559.556V18.76H563.204V28.296H573.668V18.76H577.316ZM592.006 41.288C590.342 41.288 588.838 40.9147 587.494 40.168C586.15 39.4 585.094 38.3333 584.326 36.968C583.558 35.5813 583.174 33.9813 583.174 32.168C583.174 30.376 583.569 28.7867 584.358 27.4C585.147 26.0133 586.225 24.9467 587.59 24.2C588.955 23.4533 590.481 23.08 592.166 23.08C593.851 23.08 595.377 23.4533 596.742 24.2C598.107 24.9467 599.185 26.0133 599.974 27.4C600.763 28.7867 601.158 30.376 601.158 32.168C601.158 33.96 600.753 35.5493 599.942 36.936C599.131 38.3227 598.022 39.4 596.614 40.168C595.227 40.9147 593.691 41.288 592.006 41.288ZM592.006 38.12C592.945 38.12 593.819 37.896 594.63 37.448C595.462 37 596.134 36.328 596.646 35.432C597.158 34.536 597.414 33.448 597.414 32.168C597.414 30.888 597.169 29.8107 596.678 28.936C596.187 28.04 595.537 27.368 594.726 26.92C593.915 26.472 593.041 26.248 592.102 26.248C591.163 26.248 590.289 26.472 589.478 26.92C588.689 27.368 588.059 28.04 587.59 28.936C587.121 29.8107 586.886 30.888 586.886 32.168C586.886 34.0667 587.366 35.5387 588.326 36.584C589.307 37.608 590.534 38.12 592.006 38.12ZM628.348 23.08C629.735 23.08 630.972 23.368 632.06 23.944C633.17 24.52 634.034 25.3733 634.652 26.504C635.292 27.6347 635.612 29 635.612 30.6V41H631.996V31.144C631.996 29.5653 631.602 28.36 630.812 27.528C630.023 26.6747 628.946 26.248 627.58 26.248C626.215 26.248 625.127 26.6747 624.316 27.528C623.527 28.36 623.132 29.5653 623.132 31.144V41H619.516V31.144C619.516 29.5653 619.122 28.36 618.332 27.528C617.543 26.6747 616.466 26.248 615.1 26.248C613.735 26.248 612.647 26.6747 611.836 27.528C611.047 28.36 610.652 29.5653 610.652 31.144V41H607.004V23.368H610.652V25.384C611.25 24.6587 612.007 24.0933 612.924 23.688C613.842 23.2827 614.823 23.08 615.868 23.08C617.276 23.08 618.535 23.3787 619.644 23.976C620.754 24.5733 621.607 25.4373 622.204 26.568C622.738 25.5013 623.57 24.6587 624.7 24.04C625.831 23.4 627.047 23.08 628.348 23.08ZM658.654 31.752C658.654 32.4133 658.612 33.0107 658.526 33.544H645.054C645.161 34.952 645.684 36.0827 646.622 36.936C647.561 37.7893 648.713 38.216 650.078 38.216C652.041 38.216 653.428 37.3947 654.238 35.752H658.174C657.641 37.3733 656.67 38.7067 655.262 39.752C653.876 40.776 652.148 41.288 650.078 41.288C648.393 41.288 646.878 40.9147 645.534 40.168C644.212 39.4 643.166 38.3333 642.398 36.968C641.652 35.5813 641.278 33.9813 641.278 32.168C641.278 30.3547 641.641 28.7653 642.366 27.4C643.113 26.0133 644.148 24.9467 645.47 24.2C646.814 23.4533 648.35 23.08 650.078 23.08C651.742 23.08 653.225 23.4427 654.526 24.168C655.828 24.8933 656.841 25.9173 657.566 27.24C658.292 28.5413 658.654 30.0453 658.654 31.752ZM654.846 30.6C654.825 29.256 654.345 28.1787 653.406 27.368C652.468 26.5573 651.305 26.152 649.918 26.152C648.66 26.152 647.582 26.5573 646.686 27.368C645.79 28.1573 645.257 29.2347 645.086 30.6H654.846Z" fill="#FFDD00"/>
</svg>
